<svg xmlns="http://www.w3.org/2000/svg" xmlns:xlink="http://www.w3.org/1999/xlink" width="138" height="138" viewBox="0 0 138 138">
  <defs>
    <style>
      .a {
        fill: #e7eefd;
      }

      .b {
        clip-path: url(#a);
      }

      .c {
        fill: #1458eb;
      }
    </style>
    <clipPath id="a">
      <circle class="a" cx="69" cy="69" r="69"/>
    </clipPath>
  </defs>
  <title>Ресурс 2</title>
  <g>
    <circle class="a" cx="69" cy="69" r="69"/>
    <g class="b">
      <path class="c" d="M68.9,137.7h.5v0l59.18-1.11s-5.7-23.44-11.91-29.08c-5.5-5-13.66-6.36-21.46-11-2.33-4-6.64-10-6.64-10s7.34-10.33,8.34-22.67c0,0,2.88,3,3.91-2.56,1-5.24,1.72-11.19-2-9.74,0-.23,0-.46,0-.69s0-.32,0-.48a2.18,2.18,0,0,0,.74-2.73,1.47,1.47,0,0,0-.39-.56c0-.05,0-.1,0-.15h0c0,.15.08.09.16-.2a.94.94,0,0,0,.11-.47c0-.05,0-.1,0-.15a3.34,3.34,0,0,0,0-1.2c0-.13.07-.26.1-.39a4.09,4.09,0,0,0,.08-1.2,8,8,0,0,1-.26-1.4,1,1,0,0,0-.11-.63h0a1.82,1.82,0,0,0-.15-1.65,6,6,0,0,0-1.84-4.47,1.49,1.49,0,0,0-.69-.38l-.2-1a1.78,1.78,0,0,0-.44-2l0-.17a1.18,1.18,0,0,0-2.16-.49C90.47,23.94,83.4,17.39,69.4,16.41v-.08l-.5,0c-.17,0,.5,0-.5,0v.08c-12,.86-18.79,6-22.54,12.13a1.39,1.39,0,0,0-1.19-.24c-1,.3-1.3.85-1.65,1.77a1,1,0,0,0,0,.16,9.38,9.38,0,0,0-.82,1c-.07.1-.13.22-.19.33a1.82,1.82,0,0,0-1,1.06c-.28.83-.49,1.36-.79,2.21A12.59,12.59,0,0,0,39.3,39a3.43,3.43,0,0,0,0,.83,9.92,9.92,0,0,0-.45,1.85l-.1.06a3.4,3.4,0,0,0-1.15,1.54A1.68,1.68,0,0,0,37.95,45a3.68,3.68,0,0,0,.74.51c0,.37,0,.71.08,1a1.34,1.34,0,0,0,.41.8,1.65,1.65,0,0,0,.19.26,2.44,2.44,0,0,0,.35,2.63l.09.09h0a1.65,1.65,0,0,0,0,1.41c-4-1.78-3.18,4.28-2.19,9.63,1,5.54,3.93,2.56,3.93,2.56,1,12.33,8.35,22.67,8.35,22.67s-4.32,6-6.66,10c-7.8,4.64-16,6-21.5,11-6.21,5.65-12.17,29.08-12.17,29.08l58.83,1.11v0Z"/>
    </g>
  </g>
</svg>
