<svg xmlns="http://www.w3.org/2000/svg" xmlns:xlink="http://www.w3.org/1999/xlink" width="138" height="143.5" viewBox="0 0 138 143.5">
  <defs>
    <style>
      .a {
        fill: #e7eefd;
      }

      .b {
        clip-path: url(#a);
      }

      .c {
        fill: #1458eb;
      }
    </style>
    <clipPath id="a">
      <circle class="a" cx="69" cy="69" r="69"/>
    </clipPath>
  </defs>
  <title>Ресурс 3</title>
  <g>
    <circle class="a" cx="69" cy="69" r="69"/>
    <g class="b">
      <path class="c" d="M71.38,143.5l55-6.92s-.65-28.15-6.61-31c-3.76-1.81-15.45-4.41-23.25-9.05a23.91,23.91,0,0,0-7.68-7.67l-3.46-7.45s4.45-6.55,7.41-18.22c0,0,2.88,3,3.91-2.56.91-4.94,1.64-10.49-1.4-9.91a1.3,1.3,0,0,0,0-.13,1.44,1.44,0,0,0,.64-1A7,7,0,0,0,95.42,47a2.57,2.57,0,0,0-.44-1c0-.26,0-.52,0-.78a1.06,1.06,0,0,0,.46-.48A5.53,5.53,0,0,0,95.09,40a.76.76,0,0,0,.44-.54,1.41,1.41,0,0,0,.35-.77,1.34,1.34,0,0,0-.81-1.26l0,0A1.2,1.2,0,0,0,95,35.51h0a1,1,0,0,0-.5-.45s0,0,0-.07a1,1,0,0,0,.1-1.4,1.94,1.94,0,0,0-.41-.34A3.65,3.65,0,0,0,94,32.8a1.39,1.39,0,0,0,.42-1.23V31.5a1.35,1.35,0,0,0-1.14-1.08l-.06,0a2.91,2.91,0,0,1-.23-.23l-.2-.2a1.2,1.2,0,0,0,.86-1.1c.15-1.76-1.33-3.32-2.52-4.42a4.54,4.54,0,0,0-1.23-.85h0a1.39,1.39,0,0,0,1.1-1.88,2.33,2.33,0,0,0-.55-.81,1.14,1.14,0,0,0,.85-1.36,3.6,3.6,0,0,0-2-2.4,2.61,2.61,0,0,0-2.86-2l-.06-.37a1.32,1.32,0,0,0-.88-1,5.77,5.77,0,0,0-1.86-.16,1,1,0,0,0-.68-1.43A6.68,6.68,0,0,0,80.66,12a1.21,1.21,0,0,0-1-1.12,5.94,5.94,0,0,0-2.91.34A1.48,1.48,0,0,0,75,10.53a13,13,0,0,0-1.69.73,1,1,0,0,0-.42-.35c-1.14-.51-2.34.35-3.34,1.23a1.58,1.58,0,0,0-.45-.74,1,1,0,0,0,.25-.47c.09-.39-.3-.92-.73-.65a19.91,19.91,0,0,1-2,.46,17.12,17.12,0,0,0-4.2,2.46l-.07.06a.64.64,0,0,0-.31,0h0c.34-.32.7-.64,1.06-.95a.67.67,0,0,0-.57-1.16c-2.25.2-3.76,2.51-5,4.15l-.22.33-.24.24c.17-.35.34-.7.5-1.07.33-.79-.86-1.34-1.31-.65l-.15.23a6.85,6.85,0,0,0-2.7,2.79,15.35,15.35,0,0,0-1.44,1.76,18.68,18.68,0,0,0-1.63,2.69l-.17.17a.81.81,0,0,0-.57.62l-.34.39a7.87,7.87,0,0,0-2.25,5.49s0,0,0,.07a2,2,0,0,0-1,1,.94.94,0,0,0,0,.76c-1.15,1.08-2.12,3-1.42,4.53a.77.77,0,0,0,.11.14,1.11,1.11,0,0,0-.2.88.74.74,0,0,0,.08.25,6.38,6.38,0,0,0-.41.65,5,5,0,0,0-.35,4.32,2,2,0,0,0-.87,1.53.9.9,0,0,0,.64.94c-.92,1.63-1.33,3.46-.38,4.74l0,0a2.57,2.57,0,0,0-.36,2.38.89.89,0,0,0,.08.13c-2.76-.24-2.06,5.15-1.17,9.95,1,5.54,3.9,2.56,3.9,2.56,3,11.67,7.41,18.22,7.41,18.22l-3.45,7.45A23.91,23.91,0,0,0,41.8,96.5c-7.8,4.64-19.46,7.24-23.22,9.05-6,2.87-6.5,31-6.5,31Z"/>
    </g>
  </g>
</svg>
