<svg xmlns="http://www.w3.org/2000/svg" xmlns:xlink="http://www.w3.org/1999/xlink" width="138" height="150.5" viewBox="0 0 138 150.5">
  <defs>
    <style>
      .a {
        fill: #e7eefd;
      }

      .b {
        clip-path: url(#a);
      }

      .c {
        fill: #1458eb;
      }
    </style>
    <clipPath id="a">
      <circle class="a" cx="69" cy="69" r="69"/>
    </clipPath>
  </defs>
  <title>Ресурс 4</title>
  <g>
    <circle class="a" cx="69" cy="69" r="69"/>
    <g class="b">
      <path class="c" d="M124.52,133.57s-.59-28.15-6.55-31-29-12.7-33.65-15.7V75.13s6.73-8,7.73-16.3c0,0,2.88,3,3.91-2.56.85-4.57,1.53-9.67-.78-9.95,0-.89-.14-1.79-.15-2.64a15.54,15.54,0,0,0-.32-2.87,15.78,15.78,0,0,0-.12-3.36A8.07,8.07,0,0,0,94.45,35c-.16-.56-.26-1.22-.42-1.85.12-3-.16-6.3-1.75-8a10.38,10.38,0,0,0-1.07-1.94l-.55-.79c-.42-1-.89-2.06-1.39-3.09a4.66,4.66,0,0,0-3.86-2.93,8.37,8.37,0,0,0-1.77-2.2,4.49,4.49,0,0,0-3.42-1.9,8.77,8.77,0,0,0-.93-.22l-1.22-.76a11.89,11.89,0,0,0-5.42-1.83,7.44,7.44,0,0,0-3.25-.44c-2.77.28-6.41.53-8,2.7A9.39,9.39,0,0,0,57.56,15a1,1,0,0,0-1-.09A10,10,0,0,0,52.6,18.3c-1.7,1-3,2.49-2.78,4.13-2.42,2.34-4.35,5.16-3.93,8.26A12.47,12.47,0,0,0,45.51,32a.49.49,0,0,0-.26.21,7.09,7.09,0,0,0-1,3.35,14.61,14.61,0,0,0,.11,4.86,15.15,15.15,0,0,0-.17,6.17C40.29,45,41.05,51,42,56.27c1,5.54,3.91,2.56,3.91,2.56,1,8.25,7.73,16.3,7.73,16.3v11.7C49,89.83,26,99.66,20,102.54s-6.55,31-6.55,31L72.2,150.5Z"/>
    </g>
  </g>
</svg>
