<svg xmlns="http://www.w3.org/2000/svg" xmlns:xlink="http://www.w3.org/1999/xlink" width="138" height="140.83" viewBox="0 0 138 140.83">
  <defs>
    <style>
      .a {
        fill: #e7eefd;
      }

      .b {
        clip-path: url(#a);
      }

      .c {
        fill: #1458eb;
      }
    </style>
    <clipPath id="a">
      <circle class="a" cx="69" cy="69" r="69"/>
    </clipPath>
  </defs>
  <title>Ресурс 5</title>
  <g>
    <circle class="a" cx="69" cy="69" r="69"/>
    <g class="b">
      <path class="c" d="M70.6,140.83,127,133.57s-.49-28.15-6.45-31-12.69-6.21-15.77-7.65-7.92-3.63-7.92-3.63S93.41,82.89,88,81.5l-1-6.37S91.5,67.25,92.5,59c0,0,2.88,3,3.91-2.56.8-4.3,1.45-9.06-.4-9.84a6.1,6.1,0,0,0-.07-2.67,1.43,1.43,0,0,0-.81-.91v0a16.25,16.25,0,0,0,1.27-4.16,9,9,0,0,0-.11-3.23,4,4,0,0,0-.9-1.54,2.05,2.05,0,0,0-.27-1.57c-.27-.28-.56-.6-.83-.93a4.43,4.43,0,0,0-1.14-1.78A2.83,2.83,0,0,1,93,27.94c.27-1-.28-2.18-.5-3.16-.59-2.6-3.08-3-3.88-5.39C88,17.83,86.12,17.77,84.52,18a5.28,5.28,0,0,1-.54-.66c-.28-.41-1.08-.66-1.52-.87a2.24,2.24,0,0,0-1.52-.17c-.6-1.27-1.74-2.46-3.06-2.39a1.77,1.77,0,0,0-2.11-1.12,3.86,3.86,0,0,0-1.44.77,1.3,1.3,0,0,0-.31-.38c-1.35-1.09-3.53-.41-5.14-.4a6.33,6.33,0,0,0-3,.7,1.13,1.13,0,0,0-.08-.09c-.91-.66-1.91-.32-2.85.1-.62.27-.81.51-1.49.46a4.23,4.23,0,0,0-1.88.17,3.11,3.11,0,0,0-1.62,2.08l-.26.1a1.14,1.14,0,0,0-.19-.32c-2-2.25-5.47,2.27-6,3.88,0,0,0,0,0,.08A4.56,4.56,0,0,0,49.23,21a3.47,3.47,0,0,0-.55.19c-.8.38-1.06,1.35-1.29,2.11a2.77,2.77,0,0,0-.09,1c-.12.34-.25.66-.39,1a1,1,0,0,0-1.25.5,35.62,35.62,0,0,0-2.37,4.56A4.45,4.45,0,0,0,43,31.6c-1.36,1.53-2.08,3.48-.14,5.18.15.13-.57,4.12-.59,4.48-.08,2,.65,3.61,1.14,5.37-3.49-1.13-2.74,4.68-1.79,9.81C42.62,62,45.5,59,45.5,59,46.5,67.25,51,75.13,51,75.13L50,81.5c-5.42,1.39-8.89,9.76-8.89,9.76s-4.86,2.2-7.94,3.63-9.86,4.77-15.82,7.65-6.75,31-6.75,31Z"/>
    </g>
  </g>
</svg>
