<svg xmlns="http://www.w3.org/2000/svg" xmlns:xlink="http://www.w3.org/1999/xlink" width="138" height="138.8" viewBox="0 0 138 138.8">
  <defs>
    <style>
      .a {
        fill: #e7eefd;
      }

      .b {
        clip-path: url(#a);
      }

      .c {
        fill: #1458eb;
      }
    </style>
    <clipPath id="a">
      <circle class="a" cx="69" cy="69" r="69"/>
    </clipPath>
  </defs>
  <title>Ресурс 6</title>
  <g>
    <circle class="a" cx="69" cy="69" r="69"/>
    <g class="b">
      <path class="c" d="M128.19,137.57s-.59-28.15-6.55-31S104.18,99,101,97.83c-4.5-1.61-9.23-3.33-9.23-3.33a19.56,19.56,0,0,0-4.63-3.36A9.59,9.59,0,0,0,89,87.8a5.78,5.78,0,0,0,.89-.22,1.11,1.11,0,0,0,.89-1c0-1.63.9-1.29,1.74-2.56,1.54-2.33.78-5.1,1.61-7.8l.14,0a1.08,1.08,0,0,0,1.15-1,12.51,12.51,0,0,0-.5-4.41s0-.08,0-.12a8,8,0,0,0,.71-1.81A6.51,6.51,0,0,0,95,64.67c.64-.19,1.77-1.12,3.23-4.67,2.16-5.25.17-10.73-1.59-10.05l0-.25c1.28-2.29.69-5.67.41-8.37a38.13,38.13,0,0,0-.34-6.08,21.77,21.77,0,0,0-2.48-6.82c-.36-.77-.72-1.48-1-2.12a10.56,10.56,0,0,0-3.95-4.39l-.14-.09a5.76,5.76,0,0,0-2.89-2c-.33-.13-.66-.27-1-.43L83.19,18a32.78,32.78,0,0,0-2.8-1.84A6.23,6.23,0,0,0,80.06,12c-1.63-3.76-5.18-5.73-9-6.52-3.49-.72-6.94.32-8.8,3.41a10.58,10.58,0,0,0-2.47,5.82,7.84,7.84,0,0,0,0,1c-2.71.09-5.61,1-7.16,2.51l-.08.1a22.06,22.06,0,0,0-4.31,3.84l-.07.09c-4.69,2.2-7.65,11.66-8,16.13-.19,2.66-1,7.55.62,9.88a3.93,3.93,0,0,1,.13,1.73c-1.61.3-3.11,5.28-1.13,10.08a13.7,13.7,0,0,0,2.19,3.91,2.15,2.15,0,0,0-.22,1.37,2.25,2.25,0,0,0,.45,1A1.78,1.78,0,0,0,42,67a5,5,0,0,0,.45,2.39,9.6,9.6,0,0,0,.32,3.28.94.94,0,0,0,1.21.71,2.24,2.24,0,0,0,0,.84A8.14,8.14,0,0,1,44,76.11a2,2,0,0,0,.41,3.08,2,2,0,0,0,.68,1.1,1.84,1.84,0,0,0,.58,2.38,8.93,8.93,0,0,0,1.49.67,2.05,2.05,0,0,0,1.51,2.84,2.8,2.8,0,0,0,0,2.53,2.18,2.18,0,0,0,1,.84,1.39,1.39,0,0,0,.27.52,3.52,3.52,0,0,0,1.27.88,19.78,19.78,0,0,0-5,3.55S41.52,96.22,37,97.83c-3.2,1.15-14.71,5.83-20.67,8.7s-6.55,31-6.55,31L69,138.8Z"/>
    </g>
  </g>
</svg>
