<svg xmlns="http://www.w3.org/2000/svg" xmlns:xlink="http://www.w3.org/1999/xlink" width="138" height="138" viewBox="0 0 138 138">
  <defs>
    <style>
      .a {
        fill: #e7eefd;
      }

      .b {
        clip-path: url(#a);
      }

      .c {
        fill: #1458eb;
      }
    </style>
    <clipPath id="a">
      <circle class="a" cx="69" cy="69" r="69"/>
    </clipPath>
  </defs>
  <title>Ресурс 7</title>
  <g>
    <circle class="a" cx="69" cy="69" r="69"/>
    <g class="b">
      <path class="c" d="M128.19,136.57s-.59-28.15-6.55-31-17.57-7.56-20.77-8.7C87.27,92,95.8,89.17,82.8,84.83V81.67s7.77-3.89,10.1-17.83c0,0,4.38,2,4.14-4.33-.22-5.63,1.93-13-4.19-9.8a61.61,61.61,0,0,0,1.23-25.07S86,14.33,69,14.33,43.91,24.63,43.91,24.63A61.7,61.7,0,0,0,45.13,49.7c-6.12-3.18-4,4.17-4.22,9.8-.25,6.33,4,4.33,4,4.33,2.33,13.94,9.9,17.83,9.9,17.83v3.17c-13,4.33-4.27,7.13-17.88,12-3.2,1.15-14.66,5.83-20.62,8.7s-6.52,31-6.52,31L69,137.8Z"/>
    </g>
  </g>
</svg>
