<svg xmlns="http://www.w3.org/2000/svg" xmlns:xlink="http://www.w3.org/1999/xlink" width="138" height="141.8" viewBox="0 0 138 141.8">
  <defs>
    <style>
      .a {
        fill: #e7eefd;
      }

      .b {
        clip-path: url(#a);
      }

      .c {
        fill: #1458eb;
      }
    </style>
    <clipPath id="a">
      <circle class="a" cx="69" cy="69" r="69"/>
    </clipPath>
  </defs>
  <title>Ресурс 8</title>
  <g>
    <circle class="a" cx="69" cy="69" r="69"/>
    <g class="b">
      <path class="c" d="M128.19,140.57s-.59-28.15-6.55-31-16.62-8.06-19.7-9.5-8.49-5.78-8.49-5.78-3.41-7-5.87-7.41L86,82.13s4.88-6.57,4.88-10.68c0,0,2.88,2.46,3.9-3.08C95.58,64,98.32,57,95.94,55.21c0-1.57,0-3.24-.17-4.89a.81.81,0,0,0,0-.1s0-.06,0-.1a14.73,14.73,0,0,0,.3-3.48c0-.57,0-1.15,0-1.76a.78.78,0,0,0-.91-.75c0-.29,0-.58,0-.86l.06-.05c1.11-1.56-.05-4.32-1.22-6.37a7,7,0,0,0-.12-.9,21.68,21.68,0,0,0-2.34-7.55,7.55,7.55,0,0,0,.88-1.89,5.37,5.37,0,0,0,.79-5.85,1.94,1.94,0,0,0-.52-1,3.49,3.49,0,0,0,.48-.94,1.63,1.63,0,0,0-1.41-2.14,4.45,4.45,0,0,0-1.71.45,1.43,1.43,0,0,0-2-1.12l-.28.17c-1-1.29-2.75-1.36-4.32-.69a1.57,1.57,0,0,0-1.4-.43,7,7,0,0,0-.92.27l0-.07a1.56,1.56,0,0,0-1.3-.88c-.06,0-.49.07-.93.17l-.22-.1a4.72,4.72,0,0,0-4.34.85l-.16-.1a1.5,1.5,0,0,0-1.74-1.71,5.14,5.14,0,0,0-1.63.83,1.25,1.25,0,0,0-1,.06,4.64,4.64,0,0,0-1.44,1,2.59,2.59,0,0,1-1.23.11,1.57,1.57,0,0,0-.76,0,1.4,1.4,0,0,0-.91-.11,5.61,5.61,0,0,0-1.1.35,1.51,1.51,0,0,0-1.63-.21A8.54,8.54,0,0,0,60.42,17h0a5.53,5.53,0,0,0-1.57.75,1.45,1.45,0,0,0-1.14.06,7.45,7.45,0,0,0-3,2.44,9.69,9.69,0,0,0-1.81,2.63.88.88,0,0,0-1.39.34c-.47,1.07-.91,1.87-1.35,2.8l-.18.4c-.07.15-.13.29-.2.45s0,0,0,0a8.3,8.3,0,0,0-.31,1,42.15,42.15,0,0,0-3,3.08.9.9,0,0,0,0,1,16.69,16.69,0,0,0-1.33,1.67.87.87,0,0,0,.12,1.26,10,10,0,0,0-.59,1.3.94.94,0,0,0,.06.83c-.13.16-.24.3-.33.43a.74.74,0,0,0-.84.69c0,.31-.06.61-.09.92l-.34.56a1,1,0,0,0,.13,1.24l0,.12a8.33,8.33,0,0,0-.83,4.92.68.68,0,0,0,0,.17,5.77,5.77,0,0,0,.16.58l0,.87A20.3,20.3,0,0,0,42,51.12a.57.57,0,0,0,.22.51c0,.2,0,.39-.07.59-.11.74-.2,1.48-.25,2.23a.65.65,0,0,0,.32.63c-2.75,1.57.13,8.82,1,13.29,1,5.54,3.9,3.08,3.9,3.08,0,4.11,4.87,10.68,4.87,10.68l-1.59,4.73c-2.46.41-5.87,7.41-5.87,7.41S39.14,98.6,36.06,100s-13.75,6.62-19.7,9.5-6.55,31-6.55,31L69,141.8Z"/>
    </g>
  </g>
</svg>
