<svg xmlns="http://www.w3.org/2000/svg" xmlns:xlink="http://www.w3.org/1999/xlink" width="138" height="140.5" viewBox="0 0 138 140.5">
  <defs>
    <style>
      .a {
        fill: #e7eefd;
      }

      .b {
        clip-path: url(#a);
      }

      .c {
        fill: #1458eb;
      }
    </style>
    <clipPath id="a">
      <circle class="a" cx="69" cy="69" r="69"/>
    </clipPath>
  </defs>
  <title>Ресурс 9</title>
  <g>
    <circle class="a" cx="69" cy="69" r="69"/>
    <g class="b">
      <path class="c" d="M123.38,110.46c-6.14-3-17.13-8.31-20.31-9.8s-11.85-6-11.85-6-.42-7.21-3-7.64l.43-4.88s3-6.78,3-11c0,0,3,2.54,4-3.18s2.54-16.31-2.12-13.77c0,0,1-8.47.11-13.55S88.48,19.92,69,19.92,45.17,35.59,44.33,40.67s.11,13.55.11,13.55c-4.66-2.54-3.18,8-2.12,13.77s4,3.18,4,3.18c0,4.24,3,11,3,11l.43,4.88c-2.54.42-3,7.64-3,7.64s-8.67,4.47-11.85,6-14.16,6.83-20.31,9.8S7.9,132.14,7.9,132.14L69,140.5l61.1-8.36S129.52,113.42,123.38,110.46Z"/>
    </g>
  </g>
</svg>
