<svg xmlns="http://www.w3.org/2000/svg" width="209.61" height="106.53" viewBox="0 0 209.61 106.53">
  <defs>
    <style>
      .a, .c {
        opacity: 0.2;
      }

      .b, .c {
        fill: #1458eb;
      }

      .d {
        fill: #fff;
      }

      .e {
        fill: #4f82f0;
      }

      .f {
        opacity: 0.3;
      }

      .g {
        fill: #ddcdff;
      }

      .h {
        fill: #79adf8;
      }

      .i {
        fill: #9130ff;
      }

      .j {
        fill: #e8ddff;
      }
    </style>
  </defs>
  <title>address book</title>
  <g>
    <g>
      <g class="a">
        <path class="b" d="M192.81,105.78a85.11,85.11,0,0,0-7.35-34.71,26.94,26.94,0,0,0-32.26-37.4,85,85,0,0,0-45.81-13.31q-3.15,0-6.24.23a22,22,0,0,0-33.78,9.72A85.68,85.68,0,0,0,49.55,42.93,24.38,24.38,0,0,0,25.28,82.17,85.46,85.46,0,0,0,22,105.78Z"/>
      </g>
      <g class="a">
        <path class="b" d="M169.44,105.78a62.05,62.05,0,1,0-124.1,0Z"/>
      </g>
      <g class="a">
        <circle class="b" cx="196.59" cy="73.18" r="4.86"/>
      </g>
      <g class="a">
        <circle class="b" cx="126.05" cy="12.49" r="7.49"/>
      </g>
      <circle class="c" cx="54.4" cy="30.8" r="3.21"/>
      <g class="a">
        <circle class="c" cx="155.51" cy="24.92" r="3.21"/>
      </g>
      <g class="a">
        <circle class="b" cx="84.72" cy="3.21" r="3.21"/>
      </g>
      <g class="a">
        <circle class="c" cx="194.83" cy="84.94" r="1.32"/>
      </g>
      <g class="a">
        <circle class="c" cx="154" cy="2.22" r="0.99"/>
      </g>
      <g class="a">
        <circle class="b" cx="55.67" cy="7.15" r="1.29"/>
      </g>
      <g class="a">
        <circle class="b" cx="1.71" cy="35.91" r="1.71"/>
      </g>
      <g class="a">
        <circle class="c" cx="207.89" cy="48.45" r="1.71"/>
      </g>
      <g class="a">
        <circle class="b" cx="29.23" cy="28.98" r="7.26"/>
      </g>
      <g class="a">
        <circle class="b" cx="7.85" cy="81.93" r="1.71"/>
      </g>
      <g class="a">
        <circle class="b" cx="191.72" cy="30.8" r="7.04"/>
      </g>
      <g class="a">
        <circle class="b" cx="7.85" cy="62.62" r="6.92"/>
      </g>
    </g>
    <g>
      <rect class="d" x="119.03" y="27.21" width="44.5" height="78.57" rx="3.76" ry="3.76"/>
      <rect class="e" x="119.03" y="39.22" width="44.5" height="55.36"/>
      <g class="a">
        <path class="b" d="M159.77,27.21H154.6A3.76,3.76,0,0,1,158.36,31V102a3.76,3.76,0,0,1-3.76,3.76h5.17a3.76,3.76,0,0,0,3.76-3.76V31A3.76,3.76,0,0,0,159.77,27.21Z"/>
      </g>
      <g class="f">
        <path class="g" d="M122.79,27.21H128A3.76,3.76,0,0,0,124.2,31V102a3.76,3.76,0,0,0,3.76,3.76h-5.17A3.76,3.76,0,0,1,119,102V31A3.76,3.76,0,0,1,122.79,27.21Z"/>
      </g>
      <path class="b" d="M159.77,106.53h-37a4.51,4.51,0,0,1-4.51-4.51V31a4.51,4.51,0,0,1,4.51-4.51h37A4.51,4.51,0,0,1,164.28,31V102A4.51,4.51,0,0,1,159.77,106.53ZM122.79,28a3,3,0,0,0-3,3V102a3,3,0,0,0,3,3h37a3,3,0,0,0,3-3V31a3,3,0,0,0-3-3Z"/>
      <rect class="b" x="119.03" y="37.8" width="44.5" height="1.5"/>
      <rect class="b" x="134.14" y="32.39" width="10.21" height="1.5"/>
      <rect class="b" x="145.56" y="32.39" width="2.86" height="1.5"/>
      <rect class="b" x="119.03" y="93.83" width="44.5" height="1.5"/>
    </g>
    <g>
      <polygon class="h" points="186.76 73.47 153.31 73.47 145.77 81.72 194.29 81.72 186.76 73.47"/>
      <polygon class="b" points="146.32 82.23 145.22 81.21 152.98 72.73 187.09 72.73 194.85 81.21 193.74 82.23 186.43 74.23 153.64 74.23 146.32 82.23"/>
      <rect class="d" x="147.03" y="83.74" width="46.01" height="18.57"/>
      <path class="b" d="M193.79,103.06H146.28V83h47.51Zm-46-1.5h44.51V84.49H147.78Z"/>
      <rect class="d" x="143.76" y="102.31" width="52.54" height="3.47"/>
      <path class="b" d="M197.05,106.53H143v-5h54ZM144.51,105h51v-2h-51Z"/>
      <rect class="e" x="145.88" y="81.28" width="48.3" height="2.46"/>
      <path class="b" d="M194.93,84.49h-49.8v-4h49.8ZM146.63,83h46.8V82h-46.8Z"/>
      <polygon class="d" points="182.02 83.74 170.03 75.02 158.04 83.74 182.02 83.74"/>
      <path class="b" d="M184.33,84.49H155.74L170,74.09Zm-24-1.5h19.36l-9.68-7Z"/>
      <rect class="e" x="150.76" y="88.66" width="11.19" height="5.65"/>
      <path class="b" d="M162.7,95.06H150V87.91H162.7Zm-11.19-1.5h9.69V89.41h-9.69Z"/>
      <rect class="e" x="178.44" y="88.66" width="11.19" height="5.65"/>
      <path class="b" d="M190.38,95.06H177.69V87.91h12.69Zm-11.19-1.5h9.69V89.41h-9.69Z"/>
      <rect class="e" x="166.47" y="88.29" width="6.98" height="13.83"/>
      <path class="b" d="M174.2,102.87h-8.48V87.54h8.48Zm-7-1.5h5.48V89h-5.48Z"/>
      <circle class="e" cx="169.96" cy="79.72" r="2.15"/>
      <path class="b" d="M170,82.62a2.9,2.9,0,1,1,2.9-2.9A2.9,2.9,0,0,1,170,82.62Zm0-4.29a1.4,1.4,0,1,0,1.4,1.4A1.4,1.4,0,0,0,170,78.33Z"/>
    </g>
    <path class="b" d="M130.67,18.6h-49a.75.75,0,0,1,0-1.5h49a.75.75,0,0,1,0,1.5Z"/>
    <path class="b" d="M135.74,18.6h-2.43a.75.75,0,0,1,0-1.5h2.43a.75.75,0,0,1,0,1.5Z"/>
    <path class="b" d="M189.63,40.73H169.44a.75.75,0,0,1,0-1.5h20.18a.75.75,0,0,1,0,1.5Z"/>
    <g>
      <path class="b" d="M144,18.6h-4.27a.75.75,0,0,1,0-1.5H144a.75.75,0,0,1,0,1.5Z"/>
      <path class="b" d="M141.87,20.74a.75.75,0,0,1-.75-.75V15.72a.75.75,0,0,1,1.5,0V20A.75.75,0,0,1,141.87,20.74Z"/>
    </g>
    <g>
      <path class="b" d="M107.51,38.59h-4.27a.75.75,0,0,1,0-1.5h4.27a.75.75,0,0,1,0,1.5Z"/>
      <path class="b" d="M105.37,40.73a.75.75,0,0,1-.75-.75V35.71a.75.75,0,1,1,1.5,0V40A.75.75,0,0,1,105.37,40.73Z"/>
    </g>
    <g>
      <path class="b" d="M65.91,16.91H61.63a.75.75,0,0,1,0-1.5h4.27a.75.75,0,0,1,0,1.5Z"/>
      <path class="b" d="M63.77,19A.75.75,0,0,1,63,18.3V14a.75.75,0,1,1,1.5,0V18.3A.75.75,0,0,1,63.77,19Z"/>
    </g>
    <g>
      <path class="b" d="M90.07,29.6H85.79a.75.75,0,0,1,0-1.5h4.27a.75.75,0,0,1,0,1.5Z"/>
      <path class="b" d="M87.93,31.73a.75.75,0,0,1-.75-.75V26.71a.75.75,0,1,1,1.5,0V31A.75.75,0,0,1,87.93,31.73Z"/>
    </g>
    <g>
      <path class="b" d="M108.19,10.7a.75.75,0,0,1-.53-1.28l3-3a.75.75,0,0,1,1.06,1.06l-3,3A.75.75,0,0,1,108.19,10.7Z"/>
      <path class="b" d="M111.21,10.7a.75.75,0,0,1-.53-.22l-3-3a.75.75,0,1,1,1.06-1.06l3,3a.75.75,0,0,1-.53,1.28Z"/>
    </g>
    <g>
      <path class="b" d="M74.27,50.16a.75.75,0,0,1-.53-1.28l3-3a.75.75,0,1,1,1.06,1.06l-3,3A.75.75,0,0,1,74.27,50.16Z"/>
      <path class="b" d="M77.29,50.16a.75.75,0,0,1-.53-.22l-3-3a.75.75,0,1,1,1.06-1.06l3,3a.75.75,0,0,1-.53,1.28Z"/>
    </g>
    <path class="b" d="M70.74,48.65H37a.75.75,0,0,1,0-1.5H70.74a.75.75,0,0,1,0,1.5Z"/>
    <path class="b" d="M91.93,38.59h-30a.75.75,0,0,1,0-1.5h30a.75.75,0,0,1,0,1.5Z"/>
    <path class="b" d="M99.57,38.59H94.75a.75.75,0,0,1,0-1.5h4.81a.75.75,0,1,1,0,1.5Z"/>
    <polygon class="b" points="42.6 33.1 44.5 32 46.4 33.1 46.4 35.29 44.5 36.39 42.6 35.29 42.6 33.1"/>
    <polygon class="b" points="34.59 53.86 36.49 52.76 38.39 53.86 38.39 56.05 36.49 57.15 34.59 56.05 34.59 53.86"/>
    <polygon class="b" points="196.44 59.62 198.34 58.52 200.24 59.62 200.24 61.81 198.34 62.91 196.44 61.81 196.44 59.62"/>
    <polygon class="b" points="163.52 14.07 166.08 12.59 168.64 14.07 168.64 17.02 166.08 18.5 163.52 17.02 163.52 14.07"/>
    <g>
      <path class="b" d="M32.82,68.11h-1.5v-8.2H27.14v8.2h-1.5v-8.3A1.4,1.4,0,0,1,27,58.41h4.4a1.4,1.4,0,0,1,1.39,1.39Z"/>
      <rect class="b" x="26.56" y="62.89" width="5.51" height="1.5"/>
    </g>
    <path class="b" d="M186.66,69.21H181.4A1.44,1.44,0,0,1,180,67.78V60.2a1.44,1.44,0,0,1,1.44-1.44h3.76a1.44,1.44,0,0,1,1.44,1.44v3h.06a1.44,1.44,0,0,1,1.44,1.44v3.1A1.44,1.44,0,0,1,186.66,69.21Zm-5.22-4.47,0,3,5.19-.07-.06-3h-1.06a1.41,1.41,0,0,1-.37,0Zm0-1.5h3.74l-.06-3-3.7.06Z"/>
    <g class="a">
      <path class="b" d="M128.7,64.44H118.28V102a4.5,4.5,0,0,0,4.19,4.48,6.74,6.74,0,0,0,6.1-6.7h1.16v.75h6.72a1.13,1.13,0,0,0,1.12-1.12V80.48L129.78,65.1A1.2,1.2,0,0,0,128.7,64.44Z"/>
    </g>
    <g>
      <path class="d" d="M126.11,65.44a.46.46,0,0,0-.41-.25H108.27a.45.45,0,0,0-.45.45V99.8h25.65a.37.37,0,0,0,.37-.37V80.66Z"/>
      <path class="d" d="M104.62,58.32H59.91a.25.25,0,0,0-.25.25V99.81a.25.25,0,0,0,.25.25h44.72a.25.25,0,0,0,.25-.25V58.56A.25.25,0,0,0,104.62,58.32Z"/>
      <g class="a">
        <path class="b" d="M104.62,58.32H97.9V92.83a.25.25,0,0,1-.25.25h-38v6.73a.25.25,0,0,0,.25.25h44.72a.25.25,0,0,0,.25-.25V58.56A.25.25,0,0,0,104.62,58.32Z"/>
      </g>
      <circle class="e" cx="73.68" cy="99.8" r="5.98"/>
      <circle class="d" cx="73.68" cy="99.8" r="2.36"/>
      <circle class="e" cx="118.87" cy="99.8" r="5.98"/>
      <circle class="d" cx="118.87" cy="99.8" r="2.36"/>
      <path class="e" d="M126.11,65.44a.46.46,0,0,0-.41-.25h-10V79.55h17.61Z"/>
      <path class="b" d="M73.66,106.53a6.73,6.73,0,1,1,6.73-6.73A6.74,6.74,0,0,1,73.66,106.53Zm0-12a5.23,5.23,0,1,0,5.23,5.23A5.24,5.24,0,0,0,73.66,94.56Z"/>
      <path class="b" d="M118.84,106.53a6.73,6.73,0,1,1,6.73-6.73A6.74,6.74,0,0,1,118.84,106.53Zm0-12a5.23,5.23,0,1,0,5.23,5.23A5.24,5.24,0,0,0,118.84,94.56Z"/>
      <path class="b" d="M104.65,100.8H81.49V99.3h22.66V59.07H60.44V99.3h4.65v1.5H59.93a1,1,0,0,1-1-1V58.56a1,1,0,0,1,1-1h44.72a1,1,0,0,1,1,1V99.81A1,1,0,0,1,104.65,100.8Z"/>
      <path class="b" d="M133.46,100.55h-6.72V99h6.35V80.84l-7.57-14.9h-17V99h3.16v1.5h-4.66V65.64a1.2,1.2,0,0,1,1.2-1.2H125.7a1.2,1.2,0,0,1,1.08.66l7.81,15.38V99.42A1.13,1.13,0,0,1,133.46,100.55Z"/>
      <polygon class="b" points="130.26 80.63 114.92 80.63 114.92 65.23 116.42 65.23 116.42 79.13 130.26 79.13 130.26 80.63"/>
      <rect class="b" x="113.92" y="85.31" width="3.71" height="1.5"/>
      <rect class="b" x="128.82" y="89.97" width="3.71" height="1.5"/>
      <rect class="b" x="78.48" y="93.06" width="26.09" height="1.5"/>
      <polygon class="i" points="65.92 92.6 59.69 92.6 59.69 91.1 64.42 91.1 64.42 86.71 59.69 86.71 59.69 85.21 65.92 85.21 65.92 92.6"/>
      <rect class="b" x="65.17" y="65.97" width="39.96" height="1.5"/>
      <rect class="b" x="82.35" y="84.39" width="22.77" height="1.5"/>
      <rect class="b" x="75.17" y="84.39" width="3.69" height="1.5"/>
    </g>
    <g>
      <path class="d" d="M148.69,55.26c0,5.28-6.49,11.33-7.28,12a.11.11,0,0,1-.16,0c-.79-.71-7.32-6.77-7.28-12a7.36,7.36,0,0,1,14.71,0Zm-7.36-4.07a4.07,4.07,0,1,0,4.07,4.07A4.07,4.07,0,0,0,141.34,51.19Z"/>
      <g class="a">
        <path class="b" d="M141.34,47.9a7.39,7.39,0,0,0-.92.06,7.38,7.38,0,0,1,6.44,7.29c0,4.38-4.46,9.3-6.44,11.24.4.4.71.68.84.8a.11.11,0,0,0,.16,0c.79-.71,7.32-6.77,7.28-12A7.38,7.38,0,0,0,141.34,47.9Z"/>
      </g>
      <path class="b" d="M141.34,67.95a.87.87,0,0,1-.59-.23c-1.26-1.14-7.57-7.11-7.52-12.6a8.11,8.11,0,0,1,16.21,0c0,5.5-6.26,11.47-7.53,12.61A.84.84,0,0,1,141.34,67.95Zm0-19.43a6.65,6.65,0,0,0-6.61,6.61c0,4.41,5,9.55,6.61,11.09,1.63-1.55,6.64-6.68,6.61-11.09A6.65,6.65,0,0,0,141.34,48.51Z"/>
      <path class="b" d="M141.34,59.94a4.82,4.82,0,1,1,4.82-4.82A4.82,4.82,0,0,1,141.34,59.94Zm0-8.14a3.32,3.32,0,1,0,3.32,3.32A3.32,3.32,0,0,0,141.34,51.8Z"/>
      <rect class="d" x="129.77" y="54.21" width="1.19" height="1.5"/>
      <rect class="d" x="125.17" y="54.21" width="1.19" height="1.5"/>
      <rect class="d" x="120.56" y="54.21" width="1.19" height="1.5"/>
      <rect class="d" x="160.61" y="54.21" width="1.19" height="1.5"/>
      <rect class="d" x="156" y="54.21" width="1.19" height="1.5"/>
      <rect class="d" x="151.4" y="54.21" width="1.19" height="1.5"/>
    </g>
    <g>
      <path class="d" d="M69,78H60.61L58,80.94H28V105.6a.18.18,0,0,0,.18.18H65a.18.18,0,0,0,.18-.18V82.88L69,78.07A0,0,0,0,0,69,78Z"/>
      <g class="a">
        <path class="b" d="M69,78s-8.16,0-8.17,0l-2.87,2.87V105.6a.18.18,0,0,1-.18.18H65a.18.18,0,0,0,.18-.18V82.88L69,78.07A0,0,0,0,0,69,78Z"/>
      </g>
      <path class="j" d="M31,76.29l0,0H25a.06.06,0,0,0,0,.09L28,80.94h6.35Z"/>
      <path class="d" d="M58.23,72.91,52.14,79A.16.16,0,0,1,52,79l-6.09-6.09a.1.1,0,0,1,.07-.17h2.69v-9.1h6.83v9.1h2.69A.1.1,0,0,1,58.23,72.91Z"/>
      <g class="a">
        <path class="b" d="M45.88,72.91a.1.1,0,0,1,.07-.17h2.69v-9.1H50.8v14.2Z"/>
      </g>
      <path class="e" d="M51.77,85.33l-8.45,8.45a.22.22,0,0,1-.24,0l-8.45-8.45a.14.14,0,0,1,.1-.24h3.73V63.64h9.48V85.09h3.73A.14.14,0,0,1,51.77,85.33Z"/>
      <path class="b" d="M65,106.53H28.21a.93.93,0,0,1-.93-.93V80.19h9v1.5H28.79V105h35.6V82.61l3.06-3.83H61l-2.6,2.9H50.47v-1.5h7.21l2.6-2.9h9.16l.42.89-.32.39-3.66,4.57V105.6A.93.93,0,0,1,65,106.53Z"/>
      <path class="b" d="M33.78,81.39,30.56,77H26.32l2.34,3.51-1.25.83-3.31-5,.21-.46a.81.81,0,0,1,.71-.42H31.3l.27.35L35,80.5Z"/>
      <rect class="b" x="57.26" y="83.18" width="1.5" height="22.6"/>
      <rect class="b" x="60.15" y="82.43" width="3.21" height="1.5"/>
      <g>
        <path class="b" d="M43.29,94.31a.89.89,0,0,1-.63-.26l-8.57-8.57A.89.89,0,0,1,34.72,84h3V79.6h1.5v5.86H36.19l7.11,7.11,7.11-7.11H47.34V79.8h1.5V84h3a.89.89,0,0,1,.63,1.52l-8.57,8.57A.91.91,0,0,1,43.29,94.31Z"/>
        <path class="b" d="M51.75,79.52a.85.85,0,0,1-.61-.26l-1.69-1.69,1.06-1.06,1.25,1.25,5.1-5.1H54.71v-9h1.5v7.52h2.18A.86.86,0,0,1,59,72.63l-6.86,6.86Z"/>
        <rect class="b" x="47.34" y="64.46" width="1.5" height="15.34"/>
        <rect class="b" x="42.5" y="73.17" width="1.5" height="15.34"/>
      </g>
    </g>
    <g>
      <circle class="e" cx="27.62" cy="96.78" r="9"/>
      <g class="a">
        <path class="b" d="M26.23,89.64a9,9,0,0,1,7.83,13.42A9,9,0,1,0,19.8,92.36,9,9,0,0,1,26.23,89.64Z"/>
      </g>
      <path class="b" d="M27.62,106.53a9.75,9.75,0,1,1,9.75-9.75A9.76,9.76,0,0,1,27.62,106.53Zm0-18a8.25,8.25,0,1,0,8.25,8.25A8.26,8.26,0,0,0,27.62,88.54Z"/>
      <path class="d" d="M26.49,100.82l-3.4-3.4a.75.75,0,0,1,1.06-1.06l2.34,2.34,5.21-5.21a.75.75,0,1,1,1.06,1.06Z"/>
    </g>
    <g>
      <path class="b" d="M199.84,106.53H15.66a.75.75,0,0,1,0-1.5H199.84a.75.75,0,0,1,0,1.5Z"/>
      <path class="b" d="M205.28,106.53h-2.72a.75.75,0,0,1,0-1.5h2.72a.75.75,0,0,1,0,1.5Z"/>
      <path class="b" d="M13,106.53H8.35a.75.75,0,0,1,0-1.5H13a.75.75,0,0,1,0,1.5Z"/>
    </g>
  </g>
</svg>
