<svg xmlns="http://www.w3.org/2000/svg" width="247.99" fill="#cdd0d5" height="171.91" viewBox="0 0 247.99 171.91">
  <defs>
    <style>
    </style>
  </defs>
  <title>mt_product</title>
  <g>
    <g>
      <rect class="a" x="28.37" width="34.05" height="29.7" rx="4.54" ry="4.54"/>
      <path class="a" d="M225.66,47h-60A84.3,84.3,0,0,0,82.5,47h-60A22.4,22.4,0,0,0,.07,69.36v102a22.4,22.4,0,0,0,22.4,22.4h60a84.3,84.3,0,0,0,83.14,0h60a22.4,22.4,0,0,0,22.4-22.4v-102A22.4,22.4,0,0,0,225.66,47ZM124.07,195a74.61,74.61,0,1,1,74.61-74.61A74.61,74.61,0,0,1,124.07,195ZM234.41,68.69A6.4,6.4,0,0,1,228,75.07H208.92a6.4,6.4,0,0,1-6.38-6.38V65a6.4,6.4,0,0,1,6.38-6.38H228A6.4,6.4,0,0,1,234.41,65Z" transform="translate(-0.07 -32.81)"/>
    </g>
    <g>
      <path class="a" d="M76,127.88H70.16V89.29H76Z" transform="translate(-0.07 -32.81)"/>
      <path class="a" d="M87,127.88H81.18V89.29h8.34L94.94,117l5.21-27.68h8v38.6h-5.82V103.63l-5,24.25H92.65L87,103.7Z" transform="translate(-0.07 -32.81)"/>
      <path class="a" d="M120.52,119l-1.42,8.87h-6.05l6.54-38.6h8l6.45,38.6H128L126.59,119Zm3-20.88-2.16,15.21h4.32Z" transform="translate(-0.07 -32.81)"/>
      <path class="a" d="M147.31,128.37a9.21,9.21,0,0,1-9.23-9.2V98a9.22,9.22,0,1,1,18.43,0v4.4h-6V97.92a3.36,3.36,0,0,0-3.36-3.36,3.18,3.18,0,0,0-2.35,1,3.26,3.26,0,0,0-1,2.38V119.1a3.32,3.32,0,0,0,3.32,3.34,3.26,3.26,0,0,0,2.38-1,3.21,3.21,0,0,0,1-2.37v-7.6h-3.24v-5.82h9.27v13.48a9.19,9.19,0,0,1-9.21,9.2Z" transform="translate(-0.07 -32.81)"/>
      <path class="a" d="M161.55,127.88V89.29h16.57v5.82H167.37v10.58h7.85v5.82h-7.85v10.56h10.75v5.82Z" transform="translate(-0.07 -32.81)"/>
    </g>
    <g>
      <path class="a" d="M74.45,155a4.25,4.25,0,0,1-4.28-4.27v-9.8a4.27,4.27,0,1,1,8.54,0v2H75.92v-2.09a1.56,1.56,0,0,0-1.56-1.56,1.48,1.48,0,0,0-1.09.46,1.51,1.51,0,0,0-.45,1.1v9.82a1.54,1.54,0,0,0,1.54,1.55,1.51,1.51,0,0,0,1.1-.45,1.49,1.49,0,0,0,.46-1.1v-2.46h2.79v2.49a4.09,4.09,0,0,1-1.26,3A4.13,4.13,0,0,1,74.45,155Z" transform="translate(-0.07 -32.81)"/>
      <path class="a" d="M85.14,136.66A4.28,4.28,0,0,1,89.43,141v9.76a4.27,4.27,0,1,1-8.54,0V141a4.28,4.28,0,0,1,4.26-4.29Zm1.47,4.24a1.52,1.52,0,0,0-1.54-1.54,1.51,1.51,0,0,0-1.09.45,1.47,1.47,0,0,0-.46,1.09v9.79a1.47,1.47,0,0,0,.46,1.09,1.49,1.49,0,0,0,1.09.45,1.53,1.53,0,0,0,1.54-1.54Z" transform="translate(-0.07 -32.81)"/>
      <path class="a" d="M94.49,154.77h-2.7V136.88h3.86l2.51,12.83,2.41-12.83h3.72v17.89h-2.7V143.53l-2.33,11.24H97.11l-2.62-11.21Z" transform="translate(-0.07 -32.81)"/>
      <path class="a" d="M109.42,154.77h-2.7V136.88h2.7Z" transform="translate(-0.07 -32.81)"/>
      <path class="a" d="M114.86,136.88l3.57,12v-12h2.7v17.89h-2.89l-3.71-11.46v11.46h-2.7V136.88Z" transform="translate(-0.07 -32.81)"/>
      <path class="a" d="M127.77,155a4.27,4.27,0,0,1-4.28-4.27v-9.8a4.27,4.27,0,1,1,8.54,0v2h-2.79v-2.09a1.56,1.56,0,0,0-1.56-1.56,1.48,1.48,0,0,0-1.09.46,1.51,1.51,0,0,0-.45,1.1v9.82a1.54,1.54,0,0,0,1.54,1.55,1.51,1.51,0,0,0,1.1-.45,1.49,1.49,0,0,0,.46-1.1v-3.52h-1.5v-2.7H132v6.25a4.09,4.09,0,0,1-1.26,3A4.13,4.13,0,0,1,127.77,155Z" transform="translate(-0.07 -32.81)"/>
      <path class="a" d="M144.66,150.33a5,5,0,0,1-1,3.2,3.45,3.45,0,0,1-1.85,1.27,5,5,0,0,1-1.5.21,4.24,4.24,0,0,1-2.63-.79,4.48,4.48,0,0,1-1.37-1.75,6.94,6.94,0,0,1-.59-2.55l2.56-.18a3.88,3.88,0,0,0,.83,2.26,1.36,1.36,0,0,0,1.11.5,1.68,1.68,0,0,0,1.41-.86,2.18,2.18,0,0,0,.27-1.19,3.3,3.3,0,0,0-1-2.23l-2.4-2.26a10,10,0,0,1-1.89-2.33,5.39,5.39,0,0,1-.6-2.51,4.37,4.37,0,0,1,1.64-3.7,4.06,4.06,0,0,1,2.51-.76,4.55,4.55,0,0,1,2.47.65,3.73,3.73,0,0,1,1.29,1.4,5.26,5.26,0,0,1,.6,2.06l-2.59.47a3,3,0,0,0-.63-1.71,1.31,1.31,0,0,0-1.07-.45,1.24,1.24,0,0,0-1.13.66,2.53,2.53,0,0,0-.31,1.31,4,4,0,0,0,1.06,2.5,9.3,9.3,0,0,0,1.2,1.14q.94.79,1.24,1.1a9.48,9.48,0,0,1,1.54,2,7.29,7.29,0,0,1,.41.84A5.06,5.06,0,0,1,144.66,150.33Z" transform="translate(-0.07 -32.81)"/>
      <path class="a" d="M151.12,136.66A4.28,4.28,0,0,1,155.4,141v9.76a4.27,4.27,0,1,1-8.54,0V141a4.28,4.28,0,0,1,4.26-4.29Zm1.47,4.24a1.52,1.52,0,0,0-1.54-1.54,1.51,1.51,0,0,0-1.09.45,1.47,1.47,0,0,0-.46,1.09v9.79a1.47,1.47,0,0,0,.46,1.09,1.49,1.49,0,0,0,1.09.45,1.53,1.53,0,0,0,1.54-1.54Z" transform="translate(-0.07 -32.81)"/>
      <path class="a" d="M162,136.66a4.28,4.28,0,0,1,4.29,4.29v9.76a4.27,4.27,0,1,1-8.54,0V141a4.28,4.28,0,0,1,4.26-4.29Zm1.47,4.24a1.52,1.52,0,0,0-1.54-1.54,1.51,1.51,0,0,0-1.09.45,1.47,1.47,0,0,0-.46,1.09v9.79a1.47,1.47,0,0,0,.46,1.09,1.49,1.49,0,0,0,1.09.45,1.53,1.53,0,0,0,1.54-1.54Z" transform="translate(-0.07 -32.81)"/>
      <path class="a" d="M171.67,136.88l3.57,12v-12h2.7v17.89H175l-3.71-11.46v11.46h-2.7V136.88Z" transform="translate(-0.07 -32.81)"/>
    </g>
  </g>
</svg>
