<svg width="776" height="217" viewBox="0 0 776 217" fill="none" xmlns="http://www.w3.org/2000/svg">
<path d="M132 97.9108L35.9236 2L0 52.1033L96.0552 148L132 97.9108Z" fill="url(#paint0_linear)"/>
<path d="M52.9999 98V164.193C53.0112 171.132 51.6452 178.005 48.9807 184.416C46.3162 190.827 42.4056 196.65 37.4741 201.55C32.5574 206.458 26.7156 210.35 20.2845 213.002C13.8534 215.653 6.95981 217.012 0 217L0 150.814C0.00187549 136.808 5.58638 123.375 15.5254 113.471C25.4644 103.567 38.944 98.0019 52.9999 98V98Z" fill="url(#paint1_linear)"/>
<path d="M132 98C131.998 112.056 126.434 125.536 116.532 135.475C106.63 145.414 93.1998 150.998 79.1958 151H0C0.00186857 136.944 5.56576 123.464 15.4681 113.525C25.3704 103.586 38.8002 98.0019 52.8042 98H132Z" fill="url(#paint2_linear)"/>
<path d="M123.204 52H4.70348e-07C-0.00092504 45.1716 1.36401 38.4099 4.01687 32.101C6.66973 25.7921 10.5585 20.0596 15.4612 15.2309C20.3639 10.4021 26.1845 6.57173 32.5905 3.9584C38.9965 1.34507 45.8626 -6.08267e-08 52.7965 0L176 0C176.001 6.82841 174.636 13.5901 171.983 19.899C169.33 26.2079 165.441 31.9404 160.539 36.7691C155.636 41.5979 149.816 45.4283 143.409 48.0416C137.003 50.6549 130.137 52 123.204 52Z" fill="url(#paint3_linear)"/>
<path d="M225.76 53.8L208 165.8H226.24L233.44 120.36H287.84L290.56 103.4H236.16L241.28 70.6H300.32L303.04 53.8H225.76Z" fill="#222848"/>
<path d="M319.938 49L301.378 165.8H318.498L337.057 49H319.938Z" fill="#222848"/>
<path d="M341.556 126.44C337.396 153.8 358.196 167.88 379.796 167.88C390.836 167.88 400.276 165.96 407.316 162.76L409.876 147.4C402.836 151.08 393.556 153.32 383.476 153.32C370.836 153.32 357.556 148.2 357.716 134.12H415.636C423.956 111.88 415.956 86.92 385.876 86.92C367.636 86.92 345.716 99.4 341.556 126.44ZM402.356 121.32H359.636C362.356 108.84 373.716 101.16 385.716 101.16C402.196 101.16 404.436 113.8 402.356 121.32Z" fill="#222848"/>
<path d="M428.744 126.44C424.584 153.8 445.384 167.88 466.984 167.88C478.024 167.88 487.464 165.96 494.504 162.76L497.064 147.4C490.024 151.08 480.744 153.32 470.664 153.32C458.024 153.32 444.744 148.2 444.904 134.12H502.824C511.144 111.88 503.144 86.92 473.064 86.92C454.824 86.92 432.904 99.4 428.744 126.44ZM489.544 121.32H446.824C449.544 108.84 460.904 101.16 472.904 101.16C489.384 101.16 491.624 113.8 489.544 121.32Z" fill="#222848"/>
<path d="M534.83 66.12L531.15 89H517.39L514.99 104.04H528.75L522.67 141.96C519.95 159.88 531.47 167.88 545.87 167.88C553.23 167.88 560.59 166.6 566.03 164.2L568.43 149.16C563.47 151.4 557.87 152.84 551.95 152.84C542.67 152.84 538.35 150.12 539.95 139.88L545.71 104.04H573.55L575.95 89H548.11L552.43 61.48L534.83 66.12Z" fill="#222848"/>
<path d="M643.331 89L617.251 118.28H604.131L614.371 53.8H597.251L579.491 165.8H596.611L601.891 132.84H614.691L635.011 165.8H653.411L629.251 126.92L663.331 89H643.331Z" fill="#222848"/>
<path d="M744.745 128.68C749.225 101.64 730.185 86.92 709.225 86.92C688.105 86.92 666.185 100.04 662.025 126.12C657.705 153.16 676.265 167.88 697.545 167.88C718.345 167.88 740.745 154.76 744.745 128.68ZM678.985 128.04C681.545 112.52 693.545 102.6 707.945 102.6C722.185 102.6 730.185 112.2 727.945 126.76C725.385 142.28 713.545 152.2 698.985 152.2C684.745 152.2 676.745 142.44 678.985 128.04Z" fill="#222848"/>
<path d="M775.276 158.12C776.556 150.6 771.756 146.76 765.516 146.76C760.236 146.76 755.116 149.48 754.156 156.04C752.876 163.56 757.836 167.56 763.916 167.56C769.356 167.56 774.316 164.68 775.276 158.12Z" fill="url(#paint4_linear)"/>
<defs>
<linearGradient id="paint0_linear" x1="66" y1="2" x2="66" y2="148" gradientUnits="userSpaceOnUse">
<stop stop-color="#4F82F0"/>
<stop offset="1" stop-color="#1458EB"/>
</linearGradient>
<linearGradient id="paint1_linear" x1="26.5" y1="98" x2="26.5" y2="217" gradientUnits="userSpaceOnUse">
<stop stop-color="#4F82F0"/>
<stop offset="1" stop-color="#1458EB"/>
</linearGradient>
<linearGradient id="paint2_linear" x1="66" y1="98" x2="66" y2="151" gradientUnits="userSpaceOnUse">
<stop stop-color="#4F82F0"/>
<stop offset="1" stop-color="#1458EB"/>
</linearGradient>
<linearGradient id="paint3_linear" x1="88" y1="0" x2="88" y2="52" gradientUnits="userSpaceOnUse">
<stop stop-color="#4F82F0"/>
<stop offset="1" stop-color="#1458EB"/>
</linearGradient>
<linearGradient id="paint4_linear" x1="764.718" y1="146.76" x2="764.718" y2="167.56" gradientUnits="userSpaceOnUse">
<stop stop-color="#4F82F0"/>
<stop offset="1" stop-color="#1458EB"/>
</linearGradient>
</defs>
</svg>
