<svg xmlns="http://www.w3.org/2000/svg" width="40" height="40" viewBox="0 0 40 40">
  <defs>
    <style>
      .a {
        fill: #1458EB;
      }
    </style>
  </defs>
  <title>ic_home_marker_48px2</title>
  <g>
    <rect class="a" x="19.03" y="12.58" width="2.15" height="0.93" rx="0.19" ry="0.19"/>
    <rect class="a" x="14.8" y="12.58" width="2.15" height="0.93" rx="0.19" ry="0.19"/>
    <rect class="a" x="23.26" y="12.58" width="2.15" height="0.93" rx="0.19" ry="0.19"/>
    <path class="a" d="M36,0H4A4,4,0,0,0,0,4V28a4,4,0,0,0,4,4h8l8,8,8-8h8a4,4,0,0,0,4-4V4A4,4,0,0,0,36,0ZM26.19,22.09a.14.14,0,0,1-.13.14H14.15a.14.14,0,0,1-.13-.14v-1a.14.14,0,0,1,.13-.14H26.06a.14.14,0,0,1,.13.14Zm0-2.32a.14.14,0,0,1-.13.14H14.15a.14.14,0,0,1-.13-.14v-1a.14.14,0,0,1,.13-.14H26.06a.14.14,0,0,1,.13.14Zm0-2.32a.14.14,0,0,1-.13.14H14.15a.14.14,0,0,1-.13-.14v-1a.14.14,0,0,1,.13-.14H26.06a.14.14,0,0,1,.13.14Zm3.28,7.06h-2.2V14.88H12.94V24.5h-2.2V13a.45.45,0,0,1,.23-.39l8.92-5.07a.45.45,0,0,1,.44,0l8.92,5.07a.45.45,0,0,1,.23.39Z"/>
  </g>
</svg>
