<svg xmlns="http://www.w3.org/2000/svg" width="323.17" height="337.52" viewBox="0 0 323.17 337.52">
  <defs>
    <style>
      .a {
        fill: #a1a1a1;
      }

      .b {
        fill: #3c9cff;
      }

      .c {
        fill: #dfd1cf;
      }

      .d {
        fill: #2a303d;
      }

      .e {
        fill: #f1e9ea;
      }

      .f {
        fill: #1f8acc;
      }
    </style>
  </defs>
  <title>Ресурс 21</title>
  <g>
    <ellipse class="a" cx="189.96" cy="314.66" rx="70.09" ry="13.42"/>
    <ellipse class="a" cx="94.6" cy="300.93" rx="62.13" ry="21.09"/>
    <ellipse class="a" cx="260.06" cy="316.17" rx="60.47" ry="21.34"/>
    <g>
      <path class="b" d="M205.06,159.55c-4.08,1-10.6-.83-14.82-1.15a227.64,227.64,0,0,0-29.65-.84c-7.54.41-14.94,1.89-22.52,1.73-3.85-.08-9.63.29-13.22-1.14s-6.23-7.61-8.18-10.73c-8.31-13.27-15.65-27.13-23.19-40.85-3.22-5.86-11.85-16.62-9.55-23.5,1-3.13,4.11-6.73,5.84-9.56l7-11.47L109,42c4.33-7.08,8.21-15.54,13.44-22,4.38-5.4,13.93-3.61,20.43-3.46,8.32.2,16.63.77,25,.92q11.48.21,23-.25c3.64-.15,7.28-.36,10.92-.5,1.92-.07,4.53-.66,6.25.51,1.19.81,2.82,3.93,3.64,5.11a366,366,0,0,1,23.81,39.28q2.9,5.56,5.62,11.2c1.85,3.83,5,8.77,5.82,12.93.85,4.52-1.89,8.12-4,12.08s-4.14,7.76-6.24,11.62c-5.4,9.92-11.27,19.56-16.9,29.35-2.42,4.22-4.9,8.38-7.51,12.39C210.37,154,208.79,158.63,205.06,159.55Z"/>
      <path class="c" d="M99.63,79.74q2.62-4.93,5.29-9.84c4.57-8.4,9.55-16.57,14.31-24.86,2.05-3.57,4.15-7.1,6.36-10.5,1.59-2.43,2.92-6.32,6.08-7.1,3.45-.85,9,.7,12.55,1a192.8,192.8,0,0,0,25.11.71c6.39-.35,12.65-1.6,19.07-1.47,3.26.07,8.15-.25,11.2,1s5.28,6.45,6.93,9.09c7,11.24,13.26,23,19.64,34.6,2.73,5,10,14.08,8.09,19.91-.89,2.66-3.48,5.7-4.95,8.1L223.38,110,213,127c-3.66,6-7,13.16-11.38,18.62-3.71,4.57-11.79,3.06-17.31,2.93-7-.17-14.09-.65-21.14-.78q-9.72-.18-19.44.21c-3.08.12-6.16.3-9.25.42-1.62.06-3.84.56-5.29-.43-1-.68-2.39-3.33-3.08-4.33a310,310,0,0,1-20.16-33.27q-2.45-4.71-4.76-9.49c-1.56-3.24-4.27-7.43-4.93-11C95.53,86.14,97.85,83.09,99.63,79.74Z"/>
      <path class="d" d="M93.51,91.13c1.58,3.78,3.54,7.48,5.35,11.15a359.71,359.71,0,0,0,21.86,38.41c1.94,3,3.89,5.91,5.92,8.8,1.53,2.17,1.46,2.21,4.14,2,8-.5,16-1.05,24-1,7.39,0,14.76.35,22.14.74,3.66.19,7.33.38,11,.43,1.83,0,3.66,0,5.49,0s5.54.34,7.29-.53c1.52-.76,1.08-.39,2.23-2.45,1.85-3.31,3.84-6.54,5.83-9.78l12.87-21L233.56,98.4c1.36-2.22,3.58-4.75,4.19-7.35s-.65-4.39-1.81-6.54c-7.22-13.49-14.57-27-22.29-40.18-2.19-3.75-4.48-7.44-6.78-11.12-1.39-2.21-2.74-5.66-5.14-7s-6-.86-8.52-1a84.22,84.22,0,0,0-13.17.1c-17.19,1.68-34,.24-51.22-.91-2.09-.14-4.76,5.12-5.55,6.62-2,3.88-4.09,7.63-6.37,11.44-5.1,8.52-9.71,17.31-14.49,26q-2.69,4.89-5.33,9.81c-1.31,2.45-3.45,5.25-4.16,7.94A6.75,6.75,0,0,0,93.51,91.13Zm6.12-11.39q2.62-4.93,5.29-9.84c4.57-8.4,9.55-16.57,14.31-24.86,2.05-3.57,4.15-7.1,6.36-10.5,1.59-2.43,2.92-6.32,6.08-7.1,3.45-.85,9,.7,12.55,1a192.8,192.8,0,0,0,25.11.71c6.39-.35,12.65-1.6,19.07-1.47,3.26.07,8.15-.25,11.2,1s5.28,6.45,6.93,9.09c7,11.24,13.26,23,19.64,34.6,2.73,5,10,14.08,8.09,19.91-.89,2.66-3.48,5.7-4.95,8.1L223.38,110,213,127c-3.66,6-7,13.16-11.38,18.62-3.71,4.57-11.79,3.06-17.31,2.93-7-.17-14.09-.65-21.14-.78q-9.72-.18-19.44.21c-3.08.12-6.16.3-9.25.42-1.62.06-3.84.56-5.29-.43-1-.68-2.39-3.33-3.08-4.33a310,310,0,0,1-20.16-33.27q-2.45-4.71-4.76-9.49c-1.56-3.24-4.27-7.43-4.93-11C95.53,86.14,97.85,83.09,99.63,79.74Z"/>
      <g>
        <path class="d" d="M142.9,83.5h4.91v3.76H142.9v8.2h-4.79v-8.2H122.86V84.55l15-24.63h5.08ZM128,83.5h10.11V66.83l-.15,0L137.51,68Z"/>
        <path class="d" d="M174.64,82.91q0,6-3.06,9.55a11.41,11.41,0,0,1-16.48,0Q152,88.94,152,82.91V72.46q0-6,3.06-9.52a11.36,11.36,0,0,1,16.48,0q3.09,3.54,3.09,9.52Zm-4.81-11.45a9.7,9.7,0,0,0-1.71-6.05,5.74,5.74,0,0,0-4.83-2.22,5.65,5.65,0,0,0-4.79,2.22,9.8,9.8,0,0,0-1.68,6.05V83.89A9.75,9.75,0,0,0,158.54,90a6.27,6.27,0,0,0,9.61,0,9.9,9.9,0,0,0,1.68-6.09Z"/>
        <path class="d" d="M199.2,83.5h4.91v3.76H199.2v8.2h-4.79v-8.2H179.16V84.55l15-24.63h5.08Zm-14.89,0h10.11V66.83l-.15,0L193.81,68Z"/>
      </g>
      <g>
        <path class="d" d="M134.28,111h-7v6.11h8.2v1.8H125V101.87h10.38v1.82h-8.07v5.52h7Z"/>
        <path class="d" d="M140.52,111.53v7.39h-2.31V101.88H144a6.48,6.48,0,0,1,4.28,1.24,4.45,4.45,0,0,1,1.48,3.61,3.86,3.86,0,0,1-.69,2.29,4.64,4.64,0,0,1-2,1.55,3.5,3.5,0,0,1,2,1.48,4.85,4.85,0,0,1,.62,2.54v1.61a5.35,5.35,0,0,0,.18,1.43,2.14,2.14,0,0,0,.61,1v.28h-2.38a1.91,1.91,0,0,1-.59-1.17,9.68,9.68,0,0,1-.13-1.59v-1.56a3.08,3.08,0,0,0-.81-2.23,2.86,2.86,0,0,0-2.17-.84Zm0-1.82h3.29a4.29,4.29,0,0,0,2.82-.74,2.84,2.84,0,0,0,.86-2.27,2.92,2.92,0,0,0-.84-2.23,3.69,3.69,0,0,0-2.61-.79h-3.53Z"/>
        <path class="d" d="M155.79,111.53v7.39h-2.31V101.88h5.84a6.48,6.48,0,0,1,4.28,1.24,4.45,4.45,0,0,1,1.48,3.61,3.86,3.86,0,0,1-.69,2.29,4.64,4.64,0,0,1-2,1.55,3.5,3.5,0,0,1,2,1.48,4.85,4.85,0,0,1,.62,2.54v1.61a5.35,5.35,0,0,0,.18,1.43,2.14,2.14,0,0,0,.61,1v.28h-2.38a1.91,1.91,0,0,1-.59-1.17,9.68,9.68,0,0,1-.13-1.59v-1.56a3.08,3.08,0,0,0-.81-2.23,2.86,2.86,0,0,0-2.17-.84Zm0-1.82h3.29a4.29,4.29,0,0,0,2.82-.74,2.84,2.84,0,0,0,.86-2.27,2.92,2.92,0,0,0-.84-2.23,3.69,3.69,0,0,0-2.61-.79h-3.53Z"/>
        <path class="d" d="M181.78,111.92a7.28,7.28,0,0,1-1.94,5.19,6.59,6.59,0,0,1-5,2.06,6.25,6.25,0,0,1-4.86-2.06,7.44,7.44,0,0,1-1.87-5.19v-3a7.47,7.47,0,0,1,1.87-5.19,6.23,6.23,0,0,1,4.86-2.07,6.59,6.59,0,0,1,5,2.07,7.3,7.3,0,0,1,1.94,5.2Zm-2.31-3.06A5.76,5.76,0,0,0,178.2,105a4.22,4.22,0,0,0-3.4-1.5,3.91,3.91,0,0,0-3.22,1.5,6,6,0,0,0-1.2,3.84v3.06a6,6,0,0,0,1.2,3.87,3.91,3.91,0,0,0,3.22,1.5,4.22,4.22,0,0,0,3.4-1.49,5.8,5.8,0,0,0,1.26-3.87Z"/>
        <path class="d" d="M187.41,111.53v7.39h-2.31V101.88h5.84a6.48,6.48,0,0,1,4.28,1.24,4.45,4.45,0,0,1,1.48,3.61A3.86,3.86,0,0,1,196,109a4.64,4.64,0,0,1-2,1.55,3.5,3.5,0,0,1,2,1.48,4.85,4.85,0,0,1,.62,2.54v1.61a5.35,5.35,0,0,0,.18,1.43,2.14,2.14,0,0,0,.61,1v.28h-2.38a1.91,1.91,0,0,1-.59-1.17,9.68,9.68,0,0,1-.13-1.59v-1.56a3.08,3.08,0,0,0-.81-2.23,2.86,2.86,0,0,0-2.17-.84Zm0-1.82h3.29a4.29,4.29,0,0,0,2.82-.74,2.84,2.84,0,0,0,.86-2.27,2.92,2.92,0,0,0-.84-2.23,3.69,3.69,0,0,0-2.61-.79h-3.53Z"/>
        <path class="d" d="M202.7,113.33h-2.31V101.87h2.31Zm0,5.6h-2.32v-2.39h2.32Z"/>
      </g>
      <path class="d" d="M257.95,80a15.54,15.54,0,0,0-.86-3.86c-4.09-11.37-10.81-21.7-16.26-32.44-4-7.94-8.25-15.77-12.49-23.6C226.21,16.24,224,12.36,222,8.4,220.5,5.51,219.19,2,216,.6c-2.25-1-4.76-.46-7.12-.26-6.53.57-13,.73-19.59,1-9.16.29-18.31.59-27.47.85-6.6.18-13.21,0-19.81.29-4.93.25-9.5-.23-13.38,3.42a40.59,40.59,0,0,0-5.9,7.45c-.21.3-.4.6-.59.9-.4.3-.51.71-1.36,2.21-2.19,3.91-4.54,7.72-6.88,11.55L98.72,52.84l-14,22.93c-1.61,2.63-4.23,5.61-4.95,8.68s.77,5.18,2.13,7.72c8.52,15.92,17.2,31.84,26.31,47.44,2.59,4.43,5.28,8.78,8,13.13,1.64,2.61,3.24,6.68,6.07,8.3s7.1,1,10.06,1.18a99.44,99.44,0,0,0,15.55-.12q2.11-.21,4.22-.35c1.23-.08,3-.53,4.22-.25,3.22.76,2.09,4.45,2.08,6.62,0,4,.06,7.95.1,11.92q.12,11.92.3,23.84.25,17.64.55,35.29c.22,14.09.68,28.17,1,42.25.14,7.12.24,14.24.24,21.37,0,7.8-1,17.83,10.1,16.75,5.71-.56,8.63-5.57,8.17-10.8-.66-7.65-.15-15.59-.19-23.29q-.12-23.87-.53-47.74,0-1,0-1.91-.34-19.41-.9-38.81c-.35-11.68.22-24-1.59-35.67q4,.11,8.05.3c7.84.37,15.61,2.13,23.48,1.9,7.35-.22,12.14-7.08,15.51-12.77,4-6.81,8.47-13.18,12.13-20.35,3.92-7.66,7.67-15.4,11.51-23.11C250.37,99,258.85,89.84,257.95,80ZM132.73,8C137,5,142,5.51,146.95,5.37l21.77-.59c13.92-.38,27.86-.63,41.78-1a58.16,58.16,0,0,0-4.9,9.28c-9.34.58-18.58,1.21-28,1.2-8.73,0-17.43-.42-26.14-.88-4.33-.23-8.65-.45-13-.51-2.16,0-4.32,0-6.48,0-1.12,0-2.7-.06-4.27,0A29.25,29.25,0,0,1,132.73,8Zm40.85,305.71,0,0a5.5,5.5,0,0,1-4.49,2.25c-7.51-.18-6.07-10.85-6.21-15.78-.2-6.78-.31-13.55-.39-20.33-.15-13.55-.15-27.11-.38-40.66q-.25-15.27-.51-30.54-.21-11.93-.45-23.86-.13-6-.27-11.93a54.53,54.53,0,0,1-.09-5.72,33.31,33.31,0,0,1,.24-4.49c.33-1.5.86-1.33,2.27-1.36,3-.06,6-.08,9.05,0-1,12.09.47,24.8.8,36.87q.53,19.4.92,38.81.44,23.1.58,46.21.07,11.43.08,22.87C174.72,308.8,175.45,311.34,173.59,313.67ZM205,159.55c-4.08,1-10.6-.83-14.82-1.15a227.64,227.64,0,0,0-29.65-.84c-7.54.41-14.94,1.89-22.52,1.73-3.85-.08-9.63.29-13.22-1.14s-6.23-7.61-8.18-10.73c-8.31-13.27-15.65-27.13-23.19-40.85-3.22-5.86-11.85-16.62-9.55-23.5,1-3.13,4.11-6.73,5.84-9.56l7-11.47L109,42c4.33-7.08,8.21-15.54,13.44-22,4.38-5.4,13.93-3.61,20.43-3.46,8.32.2,16.63.77,25,.92q11.48.21,23-.25c3.64-.15,7.28-.36,10.92-.5,1.92-.07,4.53-.66,6.25.51,1.19.81,2.82,3.93,3.64,5.11a366,366,0,0,1,23.81,39.28q2.9,5.56,5.62,11.2c1.85,3.83,5,8.77,5.82,12.93.85,4.52-1.89,8.12-4,12.08s-4.14,7.76-6.24,11.62c-5.4,9.92-11.27,19.56-16.9,29.35-2.42,4.22-4.9,8.38-7.51,12.39C210.3,154,208.73,158.63,205,159.55Zm27.92-32.84c-4.26,8.36-8.59,16.91-14.29,24.36q-1.62,1.76-3.29,3.48c2.26-4.29,4.55-8.46,7.08-12.68,6-10.06,11.46-20.44,17.11-30.71q3.18-5.78,6.29-11.59c1.34-2.51,3.42-5.33,4.49-8.11a1.37,1.37,0,0,0,1-.4C245.41,103.06,239,114.84,232.91,126.71Zm20.5-49.48a1.55,1.55,0,0,0-.16.34,63.79,63.79,0,0,1-3,7.28l-.2-.49c-1.86-4.46-4.18-8.83-6.32-13.17a424.7,424.7,0,0,0-25.81-45.35c-2.29-3.49-4.59-7-7-10.39-.89-1.27-1.32-1.92-1.92-2.23-.22-.11,1.59-3.59,1.74-3.87a24.29,24.29,0,0,1,4-5.82c.78-.86,3.33,5.14,3.55,5.5q1.48,2.36,2.92,4.74,2.88,4.77,5.59,9.64c3.63,6.5,7.07,13.12,10.4,19.78,2.83,5.67,5.57,11.38,8.28,17.11q2,4.24,4,8.48l2,4.23C251.69,73.55,253.65,76.8,253.41,77.23Z"/>
      <path class="e" d="M132.73,8C137,5,142,5.51,146.95,5.37l21.77-.59c13.92-.38,27.86-.63,41.78-1a58.16,58.16,0,0,0-4.9,9.28c-9.34.58-18.58,1.21-28,1.2-8.73,0-17.43-.42-26.14-.88-4.33-.23-8.65-.45-13-.51-2.16,0-4.32,0-6.48,0-1.12,0-2.7-.06-4.27,0A29.25,29.25,0,0,1,132.73,8Z"/>
      <path class="a" d="M232.91,126.71c-4.26,8.36-8.59,16.91-14.29,24.36q-1.62,1.76-3.29,3.48c2.26-4.29,4.55-8.46,7.08-12.68,6-10.06,11.46-20.44,17.11-30.71q3.18-5.78,6.29-11.59c1.34-2.51,3.42-5.33,4.49-8.11a1.37,1.37,0,0,0,1-.4C245.41,103.06,239,114.84,232.91,126.71Z"/>
      <path class="e" d="M253.41,77.23a1.55,1.55,0,0,0-.16.34,63.79,63.79,0,0,1-3,7.28l-.2-.49c-1.86-4.46-4.18-8.83-6.32-13.17a424.7,424.7,0,0,0-25.81-45.35c-2.29-3.49-4.59-7-7-10.39-.89-1.27-1.32-1.92-1.92-2.23-.22-.11,1.59-3.59,1.74-3.87a24.29,24.29,0,0,1,4-5.82c.78-.86,3.33,5.14,3.55,5.5q1.48,2.36,2.92,4.74,2.88,4.77,5.59,9.64c3.63,6.5,7.07,13.12,10.4,19.78,2.83,5.67,5.57,11.38,8.28,17.11q2,4.24,4,8.48l2,4.23C251.69,73.55,253.65,76.8,253.41,77.23Z"/>
      <path class="a" d="M174.72,306q0-11.44-.08-22.87-.14-23.11-.58-46.21-.37-19.41-.92-38.81c-.17-6.07-.63-12.3-.91-18.54a141.06,141.06,0,0,1,.11-18.34c-3,0-6,0-9.05,0-1.4,0-1.94-.15-2.27,1.36a33.31,33.31,0,0,0-.24,4.49,54.53,54.53,0,0,0,.09,5.72q.1,4.14.19,8.28a24,24,0,0,0,9.38-.9c.13,1.59.14,3.12.14,4.32,1.93,43.39,2,87.7.19,131.16a6,6,0,0,0,2.8-2l0,0C175.45,311.34,174.72,308.8,174.72,306Z"/>
    </g>
    <path class="c" d="M170.58,184.55c0-1.2,0-2.73-.14-4.32a24,24,0,0,1-9.38.9c0,1.22.06,2.43.08,3.65q.25,11.93.45,23.86.26,15.27.51,30.54c.23,13.55.23,27.11.38,40.66.08,6.78.19,13.56.39,20.33.14,4.93-1.3,15.59,6.21,15.78a5.08,5.08,0,0,0,1.69-.25C172.56,272.25,172.51,227.94,170.58,184.55Z"/>
    <g>
      <path class="d" d="M204,316.41c9.29-1.57,18.81-6.93,27.2-11.28l10.17,3.11q15.16,4.64,30.34,9.21c10.13,3,20.27,6,30.39,9.09,5.52,1.66,11.23,3.71,17.06,3.45a4.81,4.81,0,0,0,2.86-.81,3.6,3.6,0,0,0,1-3.47,14.34,14.34,0,0,0-2.15-4.51q-9.16-14.78-18.77-29.28t-20-28.53q-5.18-7-10.57-13.82c-.35-.44-.71-.88-1.06-1.31q-.45-7-1.31-14.06c-.46-5.58-.08-13.21-2.26-18.4-3-7.11-9.6-3.73-14.88-2.12q-11.85,3.62-23.5,7.88c-7.68,2.81-15.15,6.15-22.65,9.42-5.11,2.23-11.87,5.92-12,12.06-.32,14.31-1.39,28.66-.3,43,.47,6.17.58,12.69,1.56,18.75C196,309.63,197.32,317.54,204,316.41Zm114.72,7.93a1.88,1.88,0,0,1,.1,1,1.29,1.29,0,0,1-.31.65,2.34,2.34,0,0,1-1.85.5c-3.54-.1-6.88-1.18-10.26-2.23-3.66-1.13-7.18-2.64-10.82-3.82-.27-.34-.53-.68-.78-1a3.61,3.61,0,0,0-.25-.39l0,0c-.17-.25-.34-.51-.51-.77a9.67,9.67,0,0,1-.35-4.51c1.07-5.21,6.19-10.61,10.31-12a1.57,1.57,0,0,0,.38-.19C304.28,301.59,317.93,322.19,318.75,324.34ZM302,298c.57.87-3.65,2.78-4.18,3.18-2.68,2-4.67,5.52-6.17,8.44a12.29,12.29,0,0,0-1.3,9.17l-2.91-.91a11.25,11.25,0,0,1-.67-.94,1.85,1.85,0,0,0,0-.22c-1.17-4.53-1.18-7,1.09-11,1-1.74,2-3.44,3-5.06a28.86,28.86,0,0,1,8.23-7C300.09,295.06,301.05,296.51,302,298Zm-16.43-23.9q2.05,2.89,4.09,5.8c2.17,3.09,4.19,6.29,6.58,9.2.2.31.41.62.59.94s.34.61.5.93a28,28,0,0,1-3.4,1.84,19.56,19.56,0,0,0-3,2.64,42.62,42.62,0,0,0-5.43,6.25c-2.9,4.15-5.16,9.45-3.44,14.52L266,311.09l-4.72-1.46c0-.08,0-.17-.07-.25a58.19,58.19,0,0,1-.32-6.08,31.49,31.49,0,0,1,2.93-11.42c3.56-7.77,9.56-14.39,16.22-19.66a.74.74,0,0,0,.35-.12,10.14,10.14,0,0,1,2.67-1.34C283.87,271.9,284.84,273,285.59,274.06ZM273.94,257.9q3.63,5,7.2,9.95a6.39,6.39,0,0,0-.58.27,7.45,7.45,0,0,0-1.25.66c-13.13,6.52-25.87,24.24-22.55,39.48L249.4,306c-.83-2-1.68-4-2.47-6.09-1.91-9,1.44-18.15,6-26.12,1.62-2.83,3.43-5.78,6-7.84a60.33,60.33,0,0,1,11.22-7C270.6,258.67,273.56,257.38,273.94,257.9Zm-4.37-3.19v0a.77.77,0,0,0-.39.34c-.38.24-.71.47-.91.57a55,55,0,0,0-7.43,4.59,35.89,35.89,0,0,0-7.35,6.5,32.14,32.14,0,0,0-2.74,4c-6.29,10.25-10.65,22.17-5,33.52l.21.72-8.16-2.5c-4.76-1.46-9.37-3.33-14.1-4.86a67.64,67.64,0,0,0-7.25-2,6.83,6.83,0,0,1-1.92-.34,1.65,1.65,0,0,1-.46-.63,11.58,11.58,0,0,1-.57-2c-.81-3.28-.22-7.14.1-10.46.89-9.38,4.82-18.22,10.3-25.81a92.93,92.93,0,0,1,14.33-15.6c4.92-4.28,10.21-6.83,16.07-9.26q6.55,8.77,13,17.55a1.27,1.27,0,0,0,.77,1l2.86,3.87C270.55,254.19,270.09,254.49,269.57,254.71Zm-69.32,45.7c-1.22-8.73-2.5-17.37-2.8-26.28q-.31-9.16.15-18.32c.42-8.27-.5-14.59,6.84-20.18,5.85-4.45,13.08-6.61,19.84-9.26q9.8-3.81,19.84-7c5.41-1.7,10.9-4.31,16.57-3.33,3.84,6.34,4.79,12.54,5.53,20,.25,2.52.46,5,.68,7.56l-.28-.39q-2.46-3.62-5-7.14-1.71-2.33-3.49-4.62a17,17,0,0,1-1.51-2.14c-.31-.57-.3-.69-1-.8-3.4-.51-7.29.7-10.35,2.06a42.08,42.08,0,0,0-9.69,6.22,90.1,90.1,0,0,0-15.08,16.61,59.88,59.88,0,0,0-11,25.34,45.1,45.1,0,0,0-.51,9.86,42.43,42.43,0,0,0,.58,4.91,10.82,10.82,0,0,0,1,4.07,3.91,3.91,0,0,0,.35.46c.85,1,1.85,1.16,3,1.63s2.19.93,3.36,1.3c2.63.82,5.32,1.46,8,2.27l1,.31c-2.39,1.32-4.82,2.54-7.34,3.68-3.48,1.57-6.81,3.65-10.49,4.75-4.61,1.38-6.53.28-7.11-4.23C200.93,305.31,200.6,302.86,200.25,300.42Z"/>
      <path class="c" d="M304.39,301.52a1.56,1.56,0,0,1-.38.19c-4.13,1.37-9.24,6.76-10.31,12,0,.32-.08.65-.09,1q11.76,4.08,23.82,7.3C313.82,316,304.3,301.58,304.39,301.52Z"/>
      <path class="a" d="M317.42,322q-12-3.23-23.82-7.3a9.46,9.46,0,0,0,.45,3.54c.16.26.33.51.51.77l0,0a3.59,3.59,0,0,1,.25.39c.25.35.51.69.78,1,3.64,1.19,7.16,2.69,10.82,3.82,3.38,1,6.72,2.13,10.26,2.23a2.34,2.34,0,0,0,1.85-.5,1.29,1.29,0,0,0,.31-.65,1.88,1.88,0,0,0-.1-1A22.54,22.54,0,0,0,317.42,322Z"/>
      <path class="b" d="M291.66,309.59c1.51-2.92,3.5-6.41,6.17-8.44.53-.4,4.75-2.32,4.18-3.18-1-1.45-1.92-2.91-2.9-4.35a28.86,28.86,0,0,0-8.23,7c-1.08,1.62-2.06,3.32-3,5.06a11.92,11.92,0,0,0-1.85,6.28q2.12.8,4.25,1.56A15.83,15.83,0,0,1,291.66,309.59Z"/>
      <path class="f" d="M290.24,313.48q-2.13-.77-4.25-1.56a20,20,0,0,0,.76,4.77,1.87,1.87,0,0,1,0,.22,11.3,11.3,0,0,0,.67.94l2.91.91A10.54,10.54,0,0,1,290.24,313.48Z"/>
      <path class="c" d="M285.56,301.66a42.62,42.62,0,0,1,5.43-6.25,19.56,19.56,0,0,1,3-2.64,28,28,0,0,0,3.4-1.84c-.17-.32-.33-.63-.5-.93s-.39-.63-.59-.94c-2.39-2.91-4.41-6.11-6.58-9.2q-2-2.91-4.09-5.8c-.74-1-1.72-2.16-2.55-3.3a10.14,10.14,0,0,0-2.67,1.34.74.74,0,0,1-.35.12c-6.66,5.28-12.65,11.89-16.22,19.66a32.16,32.16,0,0,0-2.72,9.26q10.12,5,20.64,9.12A22,22,0,0,1,285.56,301.66Z"/>
      <path class="a" d="M281.73,310.27q-10.51-4.15-20.64-9.12c-.09.71-.17,1.43-.21,2.16a58.19,58.19,0,0,0,.32,6.08c0,.08,0,.17.07.25l4.72,1.46,16.15,5.08A11.91,11.91,0,0,1,281.73,310.27Z"/>
      <path class="b" d="M279.3,268.77a7.45,7.45,0,0,1,1.25-.66,6.36,6.36,0,0,1,.58-.27q-3.58-5-7.2-9.95c-.38-.52-3.34.77-3.8,1a60.34,60.34,0,0,0-11.22,7c-2.58,2.06-4.4,5-6,7.84-3.45,6-6.2,12.74-6.5,19.56q5,2.9,10.17,5.56C258.58,286.35,268.81,274,279.3,268.77Z"/>
      <path class="f" d="M256.58,298.88q-5.15-2.66-10.17-5.56a26,26,0,0,0,.52,6.56c.79,2.05,1.64,4.07,2.47,6.09l7.35,2.27A25.25,25.25,0,0,1,256.58,298.88Z"/>
      <path class="c" d="M250.76,270.69a32.16,32.16,0,0,1,2.74-4,35.9,35.9,0,0,1,7.35-6.5,55,55,0,0,1,7.43-4.59c.2-.09.53-.32.91-.57a.77.77,0,0,1,.39-.34v0c.52-.22,1-.52,1.46-.78l-2.86-3.87a1.27,1.27,0,0,1-.77-1q-6.49-8.78-13-17.55c-5.86,2.43-11.15,5-16.07,9.26A92.94,92.94,0,0,0,224,256.33a57.84,57.84,0,0,0-8.17,15.75,218.3,218.3,0,0,0,27.42,19.36C243.62,284.23,246.8,277.13,250.76,270.69Z"/>
      <path class="a" d="M243.21,291.43a218.3,218.3,0,0,1-27.42-19.36,46.37,46.37,0,0,0-2.13,10.06c-.32,3.33-.91,7.18-.1,10.46a11.57,11.57,0,0,0,.57,2,1.64,1.64,0,0,0,.46.63,6.83,6.83,0,0,0,1.92.34,67.62,67.62,0,0,1,7.25,2c4.73,1.53,9.35,3.4,14.1,4.86l8.16,2.5-.21-.72A24.84,24.84,0,0,1,243.21,291.43Z"/>
      <path class="b" d="M266.22,236.06c-.74-7.42-1.69-13.62-5.53-20-5.67-1-11.16,1.63-16.57,3.33q-10,3.15-19.84,7c-6.75,2.65-14,4.81-19.84,9.26-7.33,5.58-6.42,11.9-6.84,20.18q-.47,9.15-.15,18.32c.11,3.28.36,6.53.68,9.75a16.61,16.61,0,0,0,10.72,1.38,46,46,0,0,1,.57-6.5,59.88,59.88,0,0,1,11-25.34,90.1,90.1,0,0,1,15.08-16.61,42.09,42.09,0,0,1,9.69-6.22c3.06-1.36,7-2.58,10.36-2.06.7.11.69.23,1,.8a17,17,0,0,0,1.51,2.14q1.77,2.29,3.49,4.62,2.59,3.52,5,7.14l.28.39C266.68,241.1,266.47,238.57,266.22,236.06Z"/>
      <path class="f" d="M198.13,283.89c.56,5.53,1.35,11,2.12,16.53.34,2.44.68,4.9,1,7.36.57,4.51,2.49,5.61,7.11,4.23,3.68-1.1,7-3.19,10.49-4.75,2.51-1.13,4.95-2.36,7.34-3.68l-1-.31c-2.64-.81-5.32-1.45-8-2.27-1.17-.36-2.25-.83-3.36-1.3s-2.13-.66-3-1.63a3.92,3.92,0,0,1-.35-.46,10.82,10.82,0,0,1-1-4.07,42.44,42.44,0,0,1-.58-4.91c-.07-1.12-.07-2.24-.05-3.36A16.61,16.61,0,0,1,198.13,283.89Z"/>
    </g>
    <g>
      <path class="d" d="M136.42,296.1c-.91-2.72-5.15-3.84-7.39-4.88a166.68,166.68,0,0,0-27.2-9.7l-1.14-3.28-3.5-10q-5.21-15-10.5-29.92c-3.54-10-7.1-19.92-10.63-29.89-1.92-5.43-3.64-11.25-7.3-15.8a4.81,4.81,0,0,0-2.35-1.83A3.6,3.6,0,0,0,63,192a14.34,14.34,0,0,0-2.37,4.4c-4.34,10.75-8.55,21.55-12.53,32.44s-7.76,21.9-11.2,33q-2.58,8.31-4.9,16.7c-.15.54-.29,1.09-.43,1.63L30,285.83l0,0c-.05.15-.09.3-.15.45-.36,1-.7,2-1,3A111.73,111.73,0,0,0,8,299.78c-3.85,2.5-10.32,6-7.14,11.55,1.19,2.06,3.35,3.13,5.44,4,4.35,1.87,8.86,3.43,13.37,4.86,9.25,2.94,18.61,5.53,27.92,8.26,16.25,4.76,31.35,7.6,47.66,1.15a64,64,0,0,0,18.43-11.69c6-5.21,13.2-9,18.92-14.49C134.39,301.73,137.39,299,136.42,296.1ZM64.47,196.28a1.88,1.88,0,0,1,.73-.66,1.29,1.29,0,0,1,.71-.14,2.34,2.34,0,0,1,1.5,1.2c2,2.92,3.11,6.25,4.27,9.6,1.25,3.62,2.12,7.35,3.31,11-.11.42-.23.83-.37,1.24a3.59,3.59,0,0,0-.17.43v0c-.1.29-.21.58-.32.86a9.68,9.68,0,0,1-3.43,3c-4.84,2.21-12.21,1.28-15.75-1.24a1.56,1.56,0,0,0-.38-.19C54.67,221.4,63.22,198.22,64.47,196.28ZM53.08,225.37c.36-1,4.41,1.3,5,1.49,3.22,1,7.21.5,10.46,0a12.29,12.29,0,0,0,8.17-4.37l1,2.89a11.31,11.31,0,0,1-.36,1.1,1.83,1.83,0,0,0-.16.15c-3,3.62-5,5.1-9.56,5.65-2,.24-3.94.44-5.88.53a28.87,28.87,0,0,1-10.48-2.52C51.87,228.64,52.48,227,53.08,225.37Zm-9.57,27.38q1.12-3.37,2.26-6.73c1.21-3.57,2.6-7.09,3.53-10.74.14-.35.26-.69.41-1s.3-.63.45-1A28,28,0,0,1,53.66,235a19.56,19.56,0,0,0,3.87.82,42.62,42.62,0,0,0,8.25.69c5.06-.11,10.67-1.42,13.74-5.8q2.72,8,5.45,16c.53,1.56,1.08,3.11,1.61,4.66l-.16.2a58.19,58.19,0,0,1-4.71,3.85,31.49,31.49,0,0,1-10.95,4.39c-8.38,1.72-17.25.79-25.45-1.46a.74.74,0,0,0-.31-.22,10.14,10.14,0,0,1-2.66-1.36C42.78,255.41,43.1,254,43.51,252.75ZM37.35,271.7q1.86-5.85,3.77-11.69a6.31,6.31,0,0,0,.56.31,7.44,7.44,0,0,0,1.27.62c13,6.74,34.84,6.54,45.17-5.13.84,2.42,1.67,4.85,2.51,7.27-1.14,1.87-2.27,3.74-3.46,5.59-6.17,6.89-15.49,9.56-24.61,10.61-3.24.37-6.69.65-9.88-.22a60.33,60.33,0,0,1-12.3-4.89C39.94,273.93,37.15,272.31,37.35,271.7ZM34,282.22a1.27,1.27,0,0,0,.39-1.24c.48-1.53,1-3.07,1.43-4.6.49.23,1,.43,1.49.72l0,0a.77.77,0,0,0,.5.11c.42.16.8.3,1,.4A55,55,0,0,0,47,280.87,35.9,35.9,0,0,0,56.55,283a32.15,32.15,0,0,0,4.81-.13c12-1,24.18-4.51,30-15.81l.46-.59,2.8,8.06c1.63,4.7,2.85,9.53,4.41,14.25a67.65,67.65,0,0,0,2.69,7c.19.42.87,1.32.86,1.75a1.64,1.64,0,0,1-.24.74,11.59,11.59,0,0,1-1.31,1.66c-2.16,2.6-5.63,4.39-8.5,6.1C84.43,310.83,75,312.89,65.62,313a92.93,92.93,0,0,1-21.05-2.35c-6.36-1.45-11.54-4.2-17-7.5q1.9-6.22,3.83-12.41h0a1,1,0,0,0,.43-1.44C32.6,286.91,33.32,284.56,34,282.22Zm94.76,19.9a98.48,98.48,0,0,1-9.51,7c-6.2,4.35-11.42,9.94-18,13.78A54.92,54.92,0,0,1,77,330.29c-8.42.5-16.25-1.4-24.27-3.73-9.08-2.64-18.18-5.25-27.24-8-4-1.19-7.9-2.44-11.79-3.82-2-.7-5.23-1.29-6.87-2.69-5.75-4.9-1-6.76,2-8.86a133.18,133.18,0,0,1,18.92-10.84c-.24.73-.48,1.45-.71,2.18q-.87,2.76-1.66,5.54a17,17,0,0,1-.84,2.48c-.27.59-.38.66,0,1.29,1.6,3,4.88,5.46,7.78,7.13A42.09,42.09,0,0,0,43,315.14a90.09,90.09,0,0,0,22.31,2.35,59.88,59.88,0,0,0,27-6.08,45.1,45.1,0,0,0,8.26-5.41,42.45,42.45,0,0,0,3.62-3.37,10.82,10.82,0,0,0,2.66-3.24,3.93,3.93,0,0,0,.17-.55c.29-1.26-.16-2.18-.44-3.36s-.54-2.32-.94-3.48c-.71-2.06-1.5-4.08-2.26-6.12a151.1,151.1,0,0,1,22.94,8c1.18.52,5.17,1.61,5.59,2.58C132.8,298.46,130,301,128.81,302.12Z"/>
      <path class="f" d="M74.11,219.84c.12-.28.22-.57.32-.86v0a3.59,3.59,0,0,1,.17-.43c.14-.41.26-.82.37-1.24-1.19-3.63-2.06-7.37-3.31-11a62.12,62.12,0,0,0-2.48-6.45c1.42,6.95,2.73,14,4.06,21A9.26,9.26,0,0,0,74.11,219.84Z"/>
      <path class="b" d="M69.19,199.83a22.57,22.57,0,0,0-1.79-3.15,2.34,2.34,0,0,0-1.5-1.2,1.29,1.29,0,0,0-.71.14,1.88,1.88,0,0,0-.73.66c-1.25,1.93-9.8,25.12-9.92,25.07a1.57,1.57,0,0,1,.38.19c3.54,2.52,10.92,3.46,15.75,1.24a10,10,0,0,0,2.57-1.93C71.92,213.82,70.61,206.78,69.19,199.83Z"/>
      <path class="c" d="M74,224.93a14.53,14.53,0,0,1-5.45,1.92c-3.25.51-7.24,1-10.46,0-.63-.19-4.68-2.46-5-1.49-.6,1.64-1.21,3.27-1.8,4.91a28.87,28.87,0,0,0,10.48,2.52c1.95-.09,3.9-.3,5.88-.53a11.48,11.48,0,0,0,7.2-3.09Q74.43,227.05,74,224.93Z"/>
      <path class="a" d="M77.2,226.62a1.85,1.85,0,0,1,.16-.15,11.3,11.3,0,0,0,.36-1.1l-1-2.89A10.07,10.07,0,0,1,74,224.93q.41,2.12.82,4.25A25.55,25.55,0,0,0,77.2,226.62Z"/>
      <path class="f" d="M81.71,255.41a58.19,58.19,0,0,0,4.71-3.85l.16-.2c-.54-1.56-1.08-3.11-1.61-4.66q-2.73-8-5.45-16A11.64,11.64,0,0,1,75.81,234c1.49,7.38,3.1,14.72,5,21.93C81.1,255.78,81.41,255.6,81.71,255.41Z"/>
      <path class="b" d="M75.81,234a21,21,0,0,1-10,2.43,42.62,42.62,0,0,1-8.25-.69,19.56,19.56,0,0,1-3.87-.82,28,28,0,0,0-3.49-1.66c-.16.32-.31.64-.45,1s-.28.69-.41,1c-.94,3.65-2.32,7.17-3.53,10.74q-1.14,3.36-2.26,6.73c-.41,1.22-.73,2.66-1.16,4A10.14,10.14,0,0,0,45,258.11a.74.74,0,0,1,.31.22c8.19,2.26,17.07,3.18,25.45,1.46a31.79,31.79,0,0,0,10-3.83C78.91,248.75,77.3,241.41,75.81,234Z"/>
      <path class="a" d="M87.18,268.68c1.19-1.85,2.31-3.73,3.46-5.59-.84-2.42-1.67-4.85-2.51-7.27a24.64,24.64,0,0,1-6,4.89q1.42,5,3.07,10A25.14,25.14,0,0,0,87.18,268.68Z"/>
      <path class="c" d="M82.09,260.71c-11.33,6.65-28.29,5.86-39.14.24a7.44,7.44,0,0,1-1.27-.62,6.34,6.34,0,0,1-.56-.31q-1.9,5.84-3.77,11.69c-.19.61,2.59,2.24,3,2.48a60.33,60.33,0,0,0,12.3,4.89c3.18.87,6.63.59,9.88.22,8.17-.94,16.51-3.19,22.59-8.61Q83.5,265.75,82.09,260.71Z"/>
      <path class="f" d="M101,299.91a11.59,11.59,0,0,0,1.31-1.66,1.64,1.64,0,0,0,.24-.74c0-.43-.67-1.33-.86-1.75a67.65,67.65,0,0,1-2.69-7c-1.56-4.72-2.78-9.55-4.41-14.25l-2.8-8.06-.46.59a24.54,24.54,0,0,1-5.11,6.77,136.24,136.24,0,0,0,13.24,27.66A13.77,13.77,0,0,0,101,299.91Z"/>
      <path class="b" d="M86.23,273.8c-6.45,6-15.71,8.3-24.86,9a32.13,32.13,0,0,1-4.81.13A35.9,35.9,0,0,1,47,280.87a55,55,0,0,1-8.09-3.29c-.19-.1-.57-.24-1-.4a.77.77,0,0,1-.5-.11l0,0c-.48-.29-1-.48-1.49-.72-.48,1.53-1,3.07-1.43,4.6a1.27,1.27,0,0,1-.39,1.24c-.73,2.34-1.45,4.69-2.17,7a1,1,0,0,1-.43,1.44h0q-1.92,6.2-3.83,12.41c5.43,3.29,10.61,6,17,7.5A92.94,92.94,0,0,0,65.62,313c9.36-.06,18.81-2.12,26.91-6.94a47.6,47.6,0,0,0,7-4.56A136.24,136.24,0,0,1,86.23,273.8Z"/>
      <path class="c" d="M76.24,316.58a68.41,68.41,0,0,1-10.89.91A90.1,90.1,0,0,1,43,315.14,42.08,42.08,0,0,1,32.29,311c-2.91-1.67-6.19-4.09-7.78-7.13-.33-.63-.22-.7,0-1.29a17,17,0,0,0,.84-2.48q.8-2.78,1.66-5.54c.23-.73.47-1.45.71-2.18A133.18,133.18,0,0,0,8.85,303.22c-3,2.1-7.79,4-2,8.86,1.64,1.4,4.88,2,6.87,2.69,3.9,1.38,7.84,2.63,11.79,3.82,9.06,2.72,18.16,5.33,27.24,8,8,2.33,15.85,4.23,24.27,3.73a54.92,54.92,0,0,0,24.33-7.4,62.22,62.22,0,0,0,8-5.8C98.9,319.73,87.2,319.29,76.24,316.58Z"/>
      <path class="a" d="M128.81,302.12c1.22-1.09,4-3.67,3.1-5.7-.43-1-4.42-2.06-5.59-2.58a151.1,151.1,0,0,0-22.94-8c.76,2,1.55,4.06,2.26,6.12.4,1.16.66,2.3.94,3.48s.73,2.1.44,3.36a3.93,3.93,0,0,1-.17.55,10.82,10.82,0,0,1-2.66,3.24,42.42,42.42,0,0,1-3.62,3.37,45.1,45.1,0,0,1-8.26,5.41,55,55,0,0,1-16.07,5.17c11,2.71,22.66,3.15,33.11.51,3.28-2.7,6.46-5.53,10-8A98.46,98.46,0,0,0,128.81,302.12Z"/>
    </g>
  </g>
</svg>
