<svg xmlns="http://www.w3.org/2000/svg" width="209.61" height="107.28" viewBox="0 0 209.61 107.28">
  <defs>
    <style>
      .a, .j {
        opacity: 0.2;
      }

      .b, .j {
        fill: #1458eb;
      }

      .c {
        fill: #4f82f0;
      }

      .d {
        fill: #fff;
      }

      .e {
        opacity: 0.3;
      }

      .f {
        fill: #e8ddff;
      }

      .g {
        fill: #9130ff;
      }

      .h {
        opacity: 0.3;
      }

      .i {
        fill: #ddcdff;
      }

      .k {
        opacity: 0.5;
      }

      .l {
        fill: #d2d7ff;
      }
    </style>
  </defs>
  <title>Ресурс 1</title>
  <g>
    <g>
      <g class="a">
        <path class="b" d="M192.81,105.78a85.11,85.11,0,0,0-7.35-34.71,26.94,26.94,0,0,0-32.26-37.4,85,85,0,0,0-45.81-13.31q-3.15,0-6.24.23a22,22,0,0,0-33.78,9.72A85.68,85.68,0,0,0,49.55,42.93,24.38,24.38,0,0,0,25.28,82.17,85.46,85.46,0,0,0,22,105.78Z"/>
      </g>
      <g class="a">
        <path class="b" d="M169.44,105.78a62.05,62.05,0,1,0-124.1,0Z"/>
      </g>
      <g class="a">
        <circle class="b" cx="196.59" cy="73.18" r="4.86"/>
      </g>
      <g class="a">
        <circle class="b" cx="126.05" cy="12.49" r="7.49"/>
      </g>
      <g class="a">
        <circle class="b" cx="54.4" cy="30.8" r="3.21"/>
      </g>
      <g class="a">
        <circle class="b" cx="155.51" cy="24.92" r="3.21"/>
      </g>
      <g class="a">
        <circle class="b" cx="84.72" cy="3.21" r="3.21"/>
      </g>
      <g class="a">
        <circle class="b" cx="194.83" cy="84.94" r="1.32"/>
      </g>
      <g class="a">
        <circle class="b" cx="154" cy="2.22" r="0.99"/>
      </g>
      <g class="a">
        <circle class="b" cx="55.67" cy="7.15" r="1.29"/>
      </g>
      <g class="a">
        <circle class="b" cx="1.71" cy="35.91" r="1.71"/>
      </g>
      <g class="a">
        <circle class="b" cx="207.89" cy="48.45" r="1.71"/>
      </g>
      <g class="a">
        <circle class="b" cx="29.23" cy="28.98" r="7.26"/>
      </g>
      <g class="a">
        <circle class="b" cx="7.85" cy="81.93" r="1.71"/>
      </g>
      <g class="a">
        <circle class="b" cx="191.72" cy="30.8" r="7.04"/>
      </g>
      <g class="a">
        <circle class="b" cx="7.85" cy="62.62" r="6.92"/>
      </g>
    </g>
    <g>
      <path class="b" d="M199.84,107.28H15.66a.75.75,0,0,1,0-1.5H199.84a.75.75,0,0,1,0,1.5Z"/>
      <path class="b" d="M205.28,107.28h-2.72a.75.75,0,0,1,0-1.5h2.72a.75.75,0,0,1,0,1.5Z"/>
      <path class="b" d="M13,107.28H8.35a.75.75,0,0,1,0-1.5H13a.75.75,0,0,1,0,1.5Z"/>
    </g>
    <g>
      <path class="c" d="M86.42,78.8h-42a2.34,2.34,0,0,0-2.34,2.34v23a2.34,2.34,0,0,0,2.34,2.34h42a2.34,2.34,0,0,0,2.34-2.34v-23A2.34,2.34,0,0,0,86.42,78.8Z"/>
      <polygon class="d" points="81.78 78.8 71.07 78.8 61.67 78.8 49.06 78.8 49.06 106.53 49.06 106.53 81.78 106.53 81.78 106.53 81.78 78.8"/>
      <g class="e">
        <path class="b" d="M86.42,103.06h-42a2.34,2.34,0,0,1-2.34-2.34v3.47a2.34,2.34,0,0,0,2.34,2.34h42a2.34,2.34,0,0,0,2.34-2.34v-3.47A2.34,2.34,0,0,1,86.42,103.06Z"/>
      </g>
      <path class="d" d="M61,56.13v16a.3.3,0,0,0,.3.3H65V79a.31.31,0,0,0,.55.2l7-6.73H83.21a.3.3,0,0,0,.3-.3v-16a.3.3,0,0,0-.3-.3H61.31A.3.3,0,0,0,61,56.13Z"/>
      <path class="f" d="M83.21,55.83H61.31a.3.3,0,0,0-.3.3V59.3H79.74a.3.3,0,0,1,.3.3V72.45h3.17a.3.3,0,0,0,.3-.3v-16A.3.3,0,0,0,83.21,55.83Z"/>
      <path class="b" d="M65.36,80A1.12,1.12,0,0,1,65,80a1.05,1.05,0,0,1-.7-1V73.2h-3a1.05,1.05,0,0,1-1.05-1.05v-16a1.05,1.05,0,0,1,1.05-1.05h21.9a1.05,1.05,0,0,1,1.05,1.05v16a1.05,1.05,0,0,1-1.05,1.05H72.85L66.1,79.71A1,1,0,0,1,65.36,80ZM61.76,71.7h4v6.25l6.46-6.25H82.76V56.58h-21Z"/>
      <g>
        <path class="b" d="M57.18,103.08h-1.5V99.6a1.77,1.77,0,0,1,1.21-1.68l5.17-1.76V93.5h1.5v3.73l-6.19,2.11a.27.27,0,0,0-.19.26Z"/>
        <path class="b" d="M75,103.08h-1.5V99.6a.27.27,0,0,0-.19-.26l-6.2-2.11V93.5h1.5v2.65l5.18,1.76A1.77,1.77,0,0,1,75,99.6Z"/>
        <path class="b" d="M66.21,95.18H64.39l-2.27-1.49a2.71,2.71,0,0,1-1.41-2.21l-.41-5.16a5.05,5.05,0,1,1,10.1-.06v.06L70,91.48a2.75,2.75,0,0,1-1.48,2.25Zm-1.37-1.5h.94l2-1.25a1.3,1.3,0,0,0,.73-1.06l.41-5.14a3.55,3.55,0,0,0-7.1,0l.41,5.11a1.26,1.26,0,0,0,.68,1Z"/>
        <polygon class="b" points="66.66 99.27 64.08 99.27 62.25 97.19 63.37 96.19 64.76 97.77 65.98 97.77 67.37 96.19 68.5 97.19 66.66 99.27"/>
      </g>
      <path class="b" d="M86.31,107.28h-42a3.1,3.1,0,0,1-3.09-3.09v-23A3.1,3.1,0,0,1,44.34,78H60v1.5H44.34a1.59,1.59,0,0,0-1.59,1.59v23a1.59,1.59,0,0,0,1.59,1.59h42a1.59,1.59,0,0,0,1.59-1.59v-23a1.59,1.59,0,0,0-1.59-1.59H73.39V78H86.31a3.1,3.1,0,0,1,3.09,3.09v23A3.1,3.1,0,0,1,86.31,107.28Z"/>
      <rect class="b" x="48.31" y="78.8" width="1.5" height="27.74"/>
      <rect class="g" x="44.94" y="88.21" width="1.5" height="8.9"/>
      <rect class="b" x="80.92" y="78.8" width="1.5" height="27.74"/>
      <rect class="b" x="64.86" y="63.13" width="2.75" height="1.5"/>
      <rect class="b" x="70.89" y="63.13" width="2.75" height="1.5"/>
      <rect class="b" x="76.92" y="63.13" width="2.75" height="1.5"/>
    </g>
    <g>
      <rect class="d" x="86.26" y="27.96" width="44.5" height="78.57" rx="3.76" ry="3.76"/>
      <rect class="c" x="86.26" y="39.97" width="44.5" height="55.36"/>
      <g class="e">
        <path class="b" d="M127,28h-5.17a3.76,3.76,0,0,1,3.76,3.76v71.06a3.76,3.76,0,0,1-3.76,3.76H127a3.76,3.76,0,0,0,3.76-3.76V31.72A3.76,3.76,0,0,0,127,28Z"/>
      </g>
      <g class="h">
        <path class="i" d="M90,28h5.17a3.76,3.76,0,0,0-3.76,3.76v71.06a3.76,3.76,0,0,0,3.76,3.76H90a3.76,3.76,0,0,1-3.76-3.76V31.72A3.76,3.76,0,0,1,90,28Z"/>
      </g>
      <path class="b" d="M127,107.28H90a4.51,4.51,0,0,1-4.51-4.51V31.72A4.51,4.51,0,0,1,90,27.21h37a4.51,4.51,0,0,1,4.51,4.51v71.06A4.51,4.51,0,0,1,127,107.28ZM90,28.71a3,3,0,0,0-3,3v71.06a3,3,0,0,0,3,3h37a3,3,0,0,0,3-3V31.72a3,3,0,0,0-3-3Z"/>
      <rect class="b" x="86.26" y="38.55" width="44.5" height="1.5"/>
      <rect class="b" x="101.37" y="33.14" width="10.21" height="1.5"/>
      <rect class="b" x="112.79" y="33.14" width="2.86" height="1.5"/>
      <rect class="b" x="86.26" y="94.58" width="44.5" height="1.5"/>
    </g>
    <path class="b" d="M92.85,17h-49a.75.75,0,0,1,0-1.5h49a.75.75,0,0,1,0,1.5Z"/>
    <path class="b" d="M97.92,17H95.49a.75.75,0,0,1,0-1.5h2.43a.75.75,0,0,1,0,1.5Z"/>
    <path class="b" d="M147.32,38.56h-5.06a.75.75,0,0,1,0-1.5h5.06a.75.75,0,0,1,0,1.5Z"/>
    <path class="b" d="M188.25,38.56h-37.7a.75.75,0,0,1,0-1.5h37.7a.75.75,0,0,1,0,1.5Z"/>
    <g>
      <path class="b" d="M106.19,17h-4.27a.75.75,0,0,1,0-1.5h4.27a.75.75,0,0,1,0,1.5Z"/>
      <path class="b" d="M104,19.18a.75.75,0,0,1-.75-.75V14.16a.75.75,0,1,1,1.5,0v4.27A.75.75,0,0,1,104,19.18Z"/>
    </g>
    <g>
      <path class="b" d="M72.75,33.43H68.48a.75.75,0,0,1,0-1.5h4.27a.75.75,0,0,1,0,1.5Z"/>
      <path class="b" d="M70.61,35.57a.75.75,0,0,1-.75-.75V30.55a.75.75,0,1,1,1.5,0v4.27A.75.75,0,0,1,70.61,35.57Z"/>
    </g>
    <g>
      <path class="b" d="M48.72,54.28H44.44a.75.75,0,0,1,0-1.5h4.27a.75.75,0,0,1,0,1.5Z"/>
      <path class="b" d="M46.58,56.42a.75.75,0,0,1-.75-.75V51.39a.75.75,0,1,1,1.5,0v4.27A.75.75,0,0,1,46.58,56.42Z"/>
    </g>
    <g>
      <path class="b" d="M181.27,56.42H177a.75.75,0,0,1,0-1.5h4.27a.75.75,0,0,1,0,1.5Z"/>
      <path class="b" d="M179.13,58.55a.75.75,0,0,1-.75-.75V53.53a.75.75,0,0,1,1.5,0V57.8A.75.75,0,0,1,179.13,58.55Z"/>
    </g>
    <g>
      <path class="b" d="M17.93,53a.75.75,0,0,1-.53-1.28l3-3a.75.75,0,0,1,1.06,1.06l-3,3A.75.75,0,0,1,17.93,53Z"/>
      <path class="b" d="M21,53a.75.75,0,0,1-.53-.22l-3-3a.75.75,0,0,1,1.06-1.06l3,3A.75.75,0,0,1,21,53Z"/>
    </g>
    <g>
      <path class="b" d="M136.41,40.07a.75.75,0,0,1-.53-1.28l3-3A.75.75,0,1,1,140,36.83l-3,3A.75.75,0,0,1,136.41,40.07Z"/>
      <path class="b" d="M139.44,40.07a.75.75,0,0,1-.53-.22l-3-3a.75.75,0,1,1,1.06-1.06l3,3a.75.75,0,0,1-.53,1.28Z"/>
    </g>
    <path class="b" d="M162.21,24H100a.75.75,0,1,1,0-1.5h62.17a.75.75,0,0,1,0,1.5Z"/>
    <path class="b" d="M57.17,33.43h-30a.75.75,0,0,1,0-1.5h30a.75.75,0,0,1,0,1.5Z"/>
    <path class="b" d="M64.81,33.43H60a.75.75,0,0,1,0-1.5h4.81a.75.75,0,0,1,0,1.5Z"/>
    <polygon class="b" points="47.69 66.46 49.59 65.37 51.49 66.46 51.49 68.66 49.59 69.75 47.69 68.66 47.69 66.46"/>
    <polygon class="b" points="192.75 58.21 194.65 57.11 196.55 58.21 196.55 60.4 194.65 61.5 192.75 60.4 192.75 58.21"/>
    <polygon class="b" points="174.63 23.83 176.53 22.73 178.43 23.83 178.43 26.02 176.53 27.12 174.63 26.02 174.63 23.83"/>
    <polygon class="b" points="133.85 6.96 136.41 5.48 138.98 6.96 138.98 9.92 136.41 11.39 133.85 9.92 133.85 6.96"/>
    <g>
      <circle class="d" cx="107.75" cy="65.33" r="9"/>
      <path class="j" d="M106.36,58.19a9,9,0,0,1,7.83,13.42,9,9,0,1,0-14.27-10.7A9,9,0,0,1,106.36,58.19Z"/>
      <path class="b" d="M107.75,75.08a9.75,9.75,0,1,1,9.75-9.75A9.76,9.76,0,0,1,107.75,75.08Zm0-18A8.25,8.25,0,1,0,116,65.33,8.26,8.26,0,0,0,107.75,57.09Z"/>
      <path class="b" d="M106.62,69.37l-3.4-3.4a.75.75,0,1,1,1.06-1.06l2.34,2.34L111.83,62a.75.75,0,1,1,1.06,1.06Z"/>
    </g>
    <g class="k">
      <path class="b" d="M118.19,74.51h9v-.85h5.3V47.34h-2.15a1.19,1.19,0,0,0-1.19,1.19v2.11h-2v-.17h-9a1,1,0,0,0-1,1v22A1,1,0,0,0,118.19,74.51Z"/>
      <path class="b" d="M132.51,102V77.68h-6.09v-.75h-7.77a3.13,3.13,0,0,0-3.12,3.12v23.35a3.13,3.13,0,0,0,3.12,3.12H128A4.51,4.51,0,0,0,132.51,102Z"/>
    </g>
    <g>
      <path class="d" d="M163.18,78.43H120.65a2.37,2.37,0,0,0-2.37,2.37v23.35a2.37,2.37,0,0,0,2.37,2.37h42.53a2.37,2.37,0,0,0,2.37-2.37V80.8A2.37,2.37,0,0,0,163.18,78.43Z"/>
      <g class="e">
        <path class="b" d="M163.18,101.2H120.65a2.37,2.37,0,0,1-2.37-2.37v5.34a2.37,2.37,0,0,0,2.37,2.37h42.53a2.37,2.37,0,0,0,2.37-2.37V98.82A2.37,2.37,0,0,1,163.18,101.2Z"/>
      </g>
      <path class="d" d="M158.23,51.83V74a.44.44,0,0,1-.44.44h-5.45V84a.45.45,0,0,1-.8.29l-10.22-9.86h-21a.44.44,0,0,1-.44-.44V51.83a.44.44,0,0,1,.44-.44h37.43A.44.44,0,0,1,158.23,51.83Z"/>
      <path class="b" d="M163.18,107.28H120.65a3.13,3.13,0,0,1-3.12-3.12V80.8a3.13,3.13,0,0,1,3.12-3.12h7.77v1.5h-7.77A1.63,1.63,0,0,0,119,80.8v23.35a1.63,1.63,0,0,0,1.62,1.62h42.53a1.63,1.63,0,0,0,1.62-1.62V80.8a1.63,1.63,0,0,0-1.62-1.62h-8.5v-1.5h8.5a3.13,3.13,0,0,1,3.12,3.12v23.35A3.13,3.13,0,0,1,163.18,107.28Z"/>
      <rect class="b" x="124.69" y="78.43" width="1.5" height="28.1"/>
      <rect class="b" x="121.27" y="87.97" width="1.5" height="9.02"/>
      <rect class="b" x="157.73" y="78.43" width="1.5" height="28.1"/>
      <path class="b" d="M129.21,75.26h-9a1,1,0,0,1-1-1v-22a1,1,0,0,1,1-1h9v1.5h-8.55v21h8.55Z"/>
      <path class="b" d="M151.88,85.24a1.16,1.16,0,0,1-.89-.42l-4.89-4.72,1-1.08,4.42,4.27V75.18h1.5v8.89a1.16,1.16,0,0,1-.77,1.1A1.19,1.19,0,0,1,151.88,85.24Z"/>
      <rect class="b" x="128.13" y="90.4" width="3.11" height="1.5"/>
      <rect class="b" x="134.19" y="90.4" width="3.11" height="1.5"/>
      <rect class="b" x="140.24" y="90.4" width="3.11" height="1.5"/>
      <rect class="b" x="146.3" y="90.4" width="3.11" height="1.5"/>
      <rect class="b" x="152.35" y="90.4" width="3.11" height="1.5"/>
      <rect class="b" x="128.13" y="95.73" width="3.11" height="1.5"/>
      <rect class="b" x="134.19" y="95.73" width="3.11" height="1.5"/>
      <rect class="b" x="140.24" y="95.73" width="3.11" height="1.5"/>
      <rect class="b" x="146.3" y="95.73" width="3.11" height="1.5"/>
      <rect class="b" x="152.35" y="95.73" width="3.11" height="1.5"/>
      <rect class="b" x="128.13" y="101.07" width="3.11" height="1.5"/>
      <rect class="b" x="134.56" y="101.07" width="14.85" height="1.5"/>
      <rect class="b" x="152.35" y="101.07" width="3.11" height="1.5"/>
      <path class="c" d="M131.92,49.28V72.76a.44.44,0,0,0,.44.44h5.45v9.57a.45.45,0,0,0,.8.29l10.22-9.86h15.63a.44.44,0,0,0,.44-.44V49.28a.44.44,0,0,0-.44-.44h-32.1A.44.44,0,0,0,131.92,49.28Z"/>
      <g class="e">
        <path class="l" d="M164.46,48.84h-32.1a.44.44,0,0,0-.44.44v3.56h28.54a.44.44,0,0,1,.44.44V73.2h3.56a.44.44,0,0,0,.44-.44V49.28A.44.44,0,0,0,164.46,48.84Z"/>
      </g>
      <path class="b" d="M138.28,84a1.25,1.25,0,0,1-.43-.08,1.19,1.19,0,0,1-.79-1.13V73.95h-4.7a1.19,1.19,0,0,1-1.19-1.19V49.28a1.19,1.19,0,0,1,1.19-1.19h32.1a1.19,1.19,0,0,1,1.19,1.19V72.76a1.19,1.19,0,0,1-1.19,1.19H149.13l-10,9.65A1.1,1.1,0,0,1,138.28,84Zm-5.61-11.53h5.89v9.63l10-9.63h15.62V49.59H132.67Z"/>
      <rect class="d" x="137.08" y="54.16" width="22.67" height="1.5"/>
      <rect class="d" x="137.08" y="60.66" width="22.67" height="1.5"/>
      <rect class="d" x="137.08" y="67.16" width="12.39" height="1.5"/>
    </g>
    <g>
      <path class="c" d="M193.06,102.19h-24.6a4.34,4.34,0,0,0,4.34,4.34h18.8a4.34,4.34,0,0,0,4.34-4.34Z"/>
      <path class="c" d="M190.7,104h-17a.12.12,0,0,1-.12-.11l-3-17a.12.12,0,0,1,.12-.14h23.07a.12.12,0,0,1,.12.14l-3,17A.12.12,0,0,1,190.7,104Z"/>
      <path class="b" d="M193.73,86.72h-3.59l-2.49,14a.12.12,0,0,1-.12.11H173l.55,3.07a.12.12,0,0,0,.12.11h17a.12.12,0,0,0,.12-.11l3-17A.12.12,0,0,0,193.73,86.72Z"/>
      <path class="b" d="M190.7,104.71h-17a.88.88,0,0,1-.87-.75l-3-17a.89.89,0,0,1,.2-.72.87.87,0,0,1,.66-.3h23.07a.87.87,0,0,1,.87,1l-3,17A.87.87,0,0,1,190.7,104.71Zm-16.48-1.5h16L193,87.47H171.41Z"/>
      <path class="b" d="M191.6,107.28H172.8a5.09,5.09,0,0,1-5.09-5.09v-.75h3.62v1.5h-2a3.59,3.59,0,0,0,3.51,2.84h18.8a3.59,3.59,0,0,0,3.51-2.84h-2v-1.5h3.62v.75A5.09,5.09,0,0,1,191.6,107.28Z"/>
      <path class="b" d="M195.17,99h-3v-1.5h3a2.72,2.72,0,0,0,0-5.44h-1.64v-1.5h1.64a4.22,4.22,0,0,1,0,8.44Z"/>
      <path class="b" d="M185.39,84.73h-1.5a2,2,0,1,0-3.95,0h-1.5a3.47,3.47,0,1,1,6.95,0Z"/>
      <path class="b" d="M185.79,80.85a5.48,5.48,0,0,0-7.75,0L177,79.79a7,7,0,0,1,9.87,0Z"/>
      <path class="b" d="M175.4,78.21l-1.06-1.06a10.72,10.72,0,0,1,15.16,0l-1.06,1.06a9.22,9.22,0,0,0-13,0Z"/>
      <path class="b" d="M172.65,75.46l-1.06-1.06q.5-.5,1-.94l1,1.15Q173.1,75,172.65,75.46Z"/>
      <path class="b" d="M175.67,73.2,175,71.88c.42-.23.85-.43,1.28-.61l.58,1.38Q176.23,72.89,175.67,73.2Z"/>
      <path class="b" d="M179.28,71.88l-.3-1.47a14.2,14.2,0,0,1,1.45-.22l.15,1.49A13.07,13.07,0,0,0,179.28,71.88Z"/>
      <path class="b" d="M184.56,71.88a12.9,12.9,0,0,0-1.3-.2l.15-1.49a14.26,14.26,0,0,1,1.45.22Z"/>
      <path class="b" d="M188.17,73.2c-.37-.2-.75-.39-1.15-.55l.58-1.38c.43.18.86.39,1.28.62Z"/>
      <path class="b" d="M191.19,75.45q-.44-.45-.93-.85l1-1.16c.36.3.71.62,1,.94Z"/>
    </g>
    <g>
      <circle class="d" cx="23.4" cy="91.46" r="9.11"/>
      <circle class="d" cx="44.52" cy="87.61" r="8.68"/>
      <path class="f" d="M44.52,78.92a8.66,8.66,0,0,0-6.91,3.44A8.67,8.67,0,0,1,49.76,94.51a8.68,8.68,0,0,0-5.25-15.59Z"/>
      <circle class="d" cx="33.89" cy="98.16" r="8.37"/>
      <path class="f" d="M33.89,89.78a8.35,8.35,0,0,0-6.69,3.35,8.36,8.36,0,0,1,11.71,11.71,8.37,8.37,0,0,0-5-15.06Z"/>
      <g>
        <g>
          <path class="b" d="M44.52,97v-1.5a7.93,7.93,0,1,0-7.93-7.93h-1.5A9.43,9.43,0,1,1,44.52,97Z"/>
          <rect class="b" x="40.51" y="89.65" width="8.15" height="1.5"/>
          <path class="b" d="M44.59,94.84a2.28,2.28,0,0,1-2.28-2.28V90.4h1.5v2.16a.78.78,0,1,0,1.56,0V90.4h1.5v2.16A2.28,2.28,0,0,1,44.59,94.84Z"/>
          <rect class="b" x="40.77" y="85.32" width="1.44" height="1.5"/>
          <rect class="b" x="46.58" y="85.32" width="1.44" height="1.5"/>
        </g>
        <g>
          <path class="b" d="M23.54,101.47a10,10,0,1,1,9.11-14.14L31.29,88a8.51,8.51,0,1,0-7.75,12Z"/>
          <path class="b" d="M23.17,99a4.28,4.28,0,0,1-4.28-4.28v-.68l5.31-.49.14,1.49-3.86.36a2.78,2.78,0,0,0,2.69,2.1Z"/>
          <path class="b" d="M19.43,93.14l-2.58-2.57a2.19,2.19,0,0,1,2.59-3.46,2.19,2.19,0,0,1,2.79,3.23l-.12.14Zm-1-4.78a.69.69,0,0,0-.5,1.16L19.44,91l1.6-1.6a.68.68,0,0,0,.12-.38.69.69,0,0,0-.69-.69.68.68,0,0,0-.49.21l-.54.55-.54-.55A.68.68,0,0,0,18.41,88.36Z"/>
          <path class="b" d="M27.28,93.17,24.7,90.6a2.19,2.19,0,0,1,2.59-3.46,2.19,2.19,0,0,1,2.79,3.23l-.11.13Zm-1-4.78a.69.69,0,0,0-.49,1.16l1.51,1.51,1.6-1.6a.67.67,0,0,0,.12-.38.69.69,0,0,0-.69-.69.68.68,0,0,0-.49.21l-.54.55-.54-.55A.68.68,0,0,0,26.26,88.39Z"/>
        </g>
        <g>
          <path class="b" d="M33.89,107.28A9.12,9.12,0,1,1,43,98.16,9.14,9.14,0,0,1,33.89,107.28Zm0-16.75a7.62,7.62,0,1,0,7.62,7.62A7.63,7.63,0,0,0,33.89,90.53Z"/>
          <path class="b" d="M32.29,96.63a1.37,1.37,0,0,0-1.89,0l-1.06-1.06a2.9,2.9,0,0,1,4,0Z"/>
          <path class="b" d="M37.64,96.63a1.37,1.37,0,0,0-1.89,0l-1.06-1.06a2.9,2.9,0,0,1,4,0Z"/>
          <path class="b" d="M33.89,104.55a4.5,4.5,0,0,1-4.49-4.49v-.75h9v.75A4.5,4.5,0,0,1,33.89,104.55ZM31,100.81a3,3,0,0,0,5.8,0Z"/>
        </g>
      </g>
      <rect class="b" x="32.59" y="73.07" width="1.5" height="4.25"/>
      <rect class="b" x="35.95" y="75.28" width="4.25" height="1.5" transform="translate(-46.4 85.78) rotate(-69.98)"/>
      <rect class="b" x="23.68" y="76.32" width="1.5" height="4.25" transform="translate(-44.74 34.11) rotate(-40.04)"/>
      <rect class="b" x="27.84" y="73.91" width="1.5" height="4.25" transform="translate(-24.34 14.42) rotate(-20.06)"/>
    </g>
  </g>
</svg>
