<svg xmlns="http://www.w3.org/2000/svg" width="209.61" height="106.53" viewBox="0 0 209.61 106.53">
  <defs>
    <style>
      .a {
        opacity: 0.2;
      }

      .b {
        fill: #1458eb;
      }

      .c {
        fill: #fff;
      }

      .d {
        opacity: 0.5;
      }

      .e {
        fill: #4f82f0;
      }

      .f {
        fill: #79adf8;
      }

      .g {
        fill: #ddcdff;
      }

      .h {
        opacity: 0.3;
      }

      .i {
        opacity: 0.3;
      }

      .j {
        opacity: 0.9;
      }

      .k {
        fill: #aeaeff;
      }
    </style>
  </defs>
  <title>Ресурс 1</title>
  <g>
    <g>
      <g class="a">
        <path class="b" d="M192.81,105.78a85.11,85.11,0,0,0-7.35-34.71,26.94,26.94,0,0,0-32.26-37.4,85,85,0,0,0-45.81-13.31q-3.15,0-6.24.23a22,22,0,0,0-33.78,9.72A85.68,85.68,0,0,0,49.55,42.93,24.38,24.38,0,0,0,25.28,82.17,85.46,85.46,0,0,0,22,105.78Z"/>
      </g>
      <g class="a">
        <path class="b" d="M169.44,105.78a62.05,62.05,0,1,0-124.1,0Z"/>
      </g>
      <g class="a">
        <circle class="b" cx="196.59" cy="73.18" r="4.86"/>
      </g>
      <g class="a">
        <circle class="b" cx="126.05" cy="12.49" r="7.49"/>
      </g>
      <g class="a">
        <circle class="b" cx="54.4" cy="30.8" r="3.21"/>
      </g>
      <g class="a">
        <circle class="b" cx="155.51" cy="24.92" r="3.21"/>
      </g>
      <g class="a">
        <circle class="b" cx="84.72" cy="3.21" r="3.21"/>
      </g>
      <g class="a">
        <circle class="b" cx="194.83" cy="84.94" r="1.32"/>
      </g>
      <g class="a">
        <circle class="b" cx="154" cy="2.22" r="0.99"/>
      </g>
      <g class="a">
        <circle class="b" cx="55.67" cy="7.15" r="1.29"/>
      </g>
      <g class="a">
        <circle class="b" cx="1.71" cy="35.91" r="1.71"/>
      </g>
      <g class="a">
        <circle class="b" cx="207.89" cy="48.45" r="1.71"/>
      </g>
      <g class="a">
        <circle class="b" cx="29.23" cy="28.98" r="7.26"/>
      </g>
      <g class="a">
        <circle class="b" cx="7.85" cy="81.93" r="1.71"/>
      </g>
      <g class="a">
        <circle class="b" cx="191.72" cy="30.8" r="7.04"/>
      </g>
      <g class="a">
        <circle class="b" cx="7.85" cy="62.62" r="6.92"/>
      </g>
    </g>
    <g>
      <path class="c" d="M41.5,75.62l-4.32-2.46a.2.2,0,0,0-.27.18v6.18l-4.26,2-4.26-2V73.34a.2.2,0,0,0-.27-.18l-4.32,2.46a.09.09,0,0,0-.05.08v7.85a.13.13,0,0,0,.07.12l5.37,2.66v19.46h7.31V86.11l5-2.44a.13.13,0,0,0,.07-.12V75.7A.09.09,0,0,0,41.5,75.62Z"/>
      <g class="d">
        <path class="b" d="M26.33,82a.13.13,0,0,1-.07-.12V75.7a.09.09,0,0,1,.05-.08l2.07-1.18v-1.1a.2.2,0,0,0-.27-.18l-4.32,2.46a.09.09,0,0,0-.05.08v7.85a.13.13,0,0,0,.07.12l5.37,2.66v19.46H31.7V84.64Z"/>
      </g>
      <path class="b" d="M37.24,105.78h-1.5V85.64l5.07-2.47V76.08L37.66,74.3V80l-5,2.36-5-2.36v-5.7l-3.15,1.79v7.08l5.44,2.69v19.92h-1.5v-19l-5-2.45a.9.9,0,0,1-.48-.79V75.21l.51-.27,4.25-2.42a1,1,0,0,1,1,0,.94.94,0,0,1,.42.79V79l3.51,1.65L36.16,79v-5.7a.95.95,0,0,1,1.32-.87l4.78,2.71.05.52v7.85a.88.88,0,0,1-.44.77l-4.62,2.26Z"/>
    </g>
    <g>
      <rect class="c" x="52.98" y="64.51" width="33.08" height="41.27" rx="0.2" ry="0.2"/>
      <path class="e" d="M53.18,64.51H85.87a.2.2,0,0,1,.2.2V75.28a0,0,0,0,1,0,0H53a0,0,0,0,1,0,0V64.71A.2.2,0,0,1,53.18,64.51Z"/>
      <path class="b" d="M85.87,106.53H53.18a1,1,0,0,1-.95-.95V64.71a1,1,0,0,1,.95-.95H85.87a1,1,0,0,1,.95.95v40.88A1,1,0,0,1,85.87,106.53ZM53.73,105H85.31V65.26H53.73Z"/>
      <rect class="b" x="53.56" y="74.53" width="32.5" height="1.5"/>
      <rect class="c" x="80.73" y="66.53" width="2.83" height="1.5"/>
      <rect class="c" x="80.73" y="69.03" width="2.83" height="1.5"/>
      <rect class="c" x="80.73" y="71.53" width="2.83" height="1.5"/>
      <path class="b" d="M82.79,85.1h-26V79h26ZM58.34,83.6h23v-3.1h-23Z"/>
      <path class="b" d="M82.79,93.26h-26v-6.1h26Zm-24.45-1.5h23v-3.1h-23Z"/>
      <rect class="f" x="64.29" y="97.51" width="11.04" height="4.33"/>
      <path class="b" d="M76.08,102.59H63.54V96.76H76.08Zm-11-1.5h9.54V98.26H65Z"/>
    </g>
    <g>
      <rect class="c" x="154.36" y="69.58" width="29.01" height="36.2" rx="0.2" ry="0.2"/>
      <path class="e" d="M154.55,69.58h28.62a.2.2,0,0,1,.2.2V79a0,0,0,0,1,0,0h-29a0,0,0,0,1,0,0V69.78A.2.2,0,0,1,154.55,69.58Z"/>
      <path class="b" d="M183.17,106.53H154.55a1,1,0,0,1-.95-.95V69.78a1,1,0,0,1,.95-.95h28.62a1,1,0,0,1,.95.95v35.8A1,1,0,0,1,183.17,106.53ZM155.11,105h27.52V70.33H155.11Z"/>
      <rect class="b" x="154.87" y="78.28" width="28.5" height="1.5"/>
      <rect class="c" x="178.69" y="71.27" width="2.49" height="1.5"/>
      <rect class="c" x="178.69" y="73.46" width="2.49" height="1.5"/>
      <rect class="c" x="178.69" y="75.65" width="2.49" height="1.5"/>
      <path class="g" d="M172.68,88.63l-5.26,3a.15.15,0,0,1-.22-.13V85.46a.15.15,0,0,1,.22-.13l5.26,3a.15.15,0,0,1,0,.25l-5.26,3a.15.15,0,0,1-.22-.13V85.46a.15.15,0,0,1,.22-.13l5.26,3A.15.15,0,0,1,172.68,88.63Z"/>
      <path class="b" d="M167.35,92.43a.89.89,0,0,1-.9-.9V85.46a.9.9,0,0,1,1.35-.77l5.26,3a.9.9,0,0,1,.45.75v0a.9.9,0,0,1-.45.78l-5.26,3A.88.88,0,0,1,167.35,92.43Zm.6-5.92v4l3.45-2Z"/>
      <rect class="b" x="167.89" y="97.62" width="1.68" height="1.5"/>
      <rect class="b" x="172.93" y="97.62" width="1.68" height="1.5"/>
      <rect class="b" x="177.98" y="97.62" width="1.68" height="1.5"/>
      <rect class="b" x="158.58" y="97.62" width="7.91" height="1.5"/>
      <rect class="b" x="165.42" y="96.95" width="1.5" height="2.85"/>
    </g>
    <path class="b" d="M23.32,67.29H12.27a.75.75,0,0,1,0-1.5H23.32a.75.75,0,0,1,0,1.5Z"/>
    <path class="b" d="M27.68,67.29H25.59a.75.75,0,0,1,0-1.5h2.09a.75.75,0,0,1,0,1.5Z"/>
    <g>
      <path class="b" d="M34.78,67.29H31.11a.75.75,0,0,1,0-1.5h3.67a.75.75,0,0,1,0,1.5Z"/>
      <path class="b" d="M32.95,69.12a.75.75,0,0,1-.75-.75V64.7a.75.75,0,1,1,1.5,0v3.67A.75.75,0,0,1,32.95,69.12Z"/>
    </g>
    <g>
      <path class="b" d="M183.31,41.22H179a.75.75,0,0,1,0-1.5h4.27a.75.75,0,0,1,0,1.5Z"/>
      <path class="b" d="M181.18,43.36a.75.75,0,0,1-.75-.75V38.34a.75.75,0,0,1,1.5,0v4.27A.75.75,0,0,1,181.18,43.36Z"/>
    </g>
    <g>
      <path class="b" d="M95.2,24a.75.75,0,0,1-.53-1.28l3-3a.75.75,0,0,1,1.06,1.06l-3,3A.75.75,0,0,1,95.2,24Z"/>
      <path class="b" d="M98.23,24a.75.75,0,0,1-.53-.22l-3-3a.75.75,0,0,1,1.06-1.06l3,3A.75.75,0,0,1,98.23,24Z"/>
    </g>
    <g>
      <path class="b" d="M13.26,28.3A.75.75,0,0,1,12.73,27l3-3a.75.75,0,1,1,1.06,1.06l-3,3A.75.75,0,0,1,13.26,28.3Z"/>
      <path class="b" d="M16.28,28.3a.75.75,0,0,1-.53-.22l-3-3A.75.75,0,0,1,13.79,24l3,3a.75.75,0,0,1-.53,1.28Z"/>
    </g>
    <g>
      <path class="b" d="M165.43,24a.75.75,0,0,1-.53-1.28l3-3A.75.75,0,0,1,169,20.73l-3,3A.75.75,0,0,1,165.43,24Z"/>
      <path class="b" d="M168.46,24a.75.75,0,0,1-.53-.22l-3-3A.75.75,0,1,1,166,19.67l3,3a.75.75,0,0,1-.53,1.28Z"/>
    </g>
    <path class="b" d="M190.75,62.07H165.21a.75.75,0,0,1,0-1.5h25.54a.75.75,0,0,1,0,1.5Z"/>
    <path class="b" d="M130.84,13.14H92.46a.75.75,0,0,1,0-1.5h38.38a.75.75,0,0,1,0,1.5Z"/>
    <path class="b" d="M81.24,22.46H49.58a.75.75,0,0,1,0-1.5H81.24a.75.75,0,0,1,0,1.5Z"/>
    <path class="b" d="M90,22.46H85.23a.75.75,0,0,1,0-1.5H90a.75.75,0,0,1,0,1.5Z"/>
    <polygon class="b" points="17.85 49.52 19.75 48.42 21.65 49.52 21.65 51.71 19.75 52.81 17.85 51.71 17.85 49.52"/>
    <polygon class="b" points="191.61 48.02 193.51 46.92 195.41 48.02 195.41 50.21 193.51 51.31 191.61 50.21 191.61 48.02"/>
    <polygon class="b" points="69.45 13.08 71.35 11.98 73.25 13.08 73.25 15.27 71.35 16.37 69.45 15.27 69.45 13.08"/>
    <polygon class="b" points="142.79 11.18 145.35 9.71 147.91 11.18 147.91 14.14 145.35 15.62 142.79 14.14 142.79 11.18"/>
    <g>
      <path class="c" d="M167.32,44.44a.1.1,0,0,1,0,.13c-.78.87-9.06,9.86-15.36,9.86s-14.58-9-15.36-9.86a.1.1,0,0,1,0-.13c.78-.87,9.06-9.86,15.36-9.86S166.53,43.57,167.32,44.44Z"/>
      <circle class="e" cx="151.7" cy="44.73" r="2.27"/>
      <path class="b" d="M152.68,59.66h-1.5V56.57h1.5Zm6-1.55-1.53-2.69,1.3-.74L160,57.37ZM145.11,58l-1.3-.75,1.54-2.68,1.3.75Zm6.92-2.8c-6.59,0-15-9.07-15.92-10.1a.85.85,0,0,1,0-1.14c.94-1,9.33-10.11,15.92-10.11s15,9.07,15.92,10.1a.85.85,0,0,1,0,1.14C167,46.11,158.63,55.18,152,55.18ZM137.63,44.51c3.36,3.6,9.77,9.17,14.41,9.17s11-5.57,14.41-9.17c-3.36-3.6-9.77-9.17-14.41-9.17S141,40.91,137.63,44.51Zm15.5,8.43h-2.89l-.39-2.69a5.8,5.8,0,0,1-.77-.32l-2.18,1.63-2-2,1.63-2.18a5.82,5.82,0,0,1-.32-.77l-2.69-.4V43.26l2.69-.38a5.63,5.63,0,0,1,.32-.77l-1.62-2.18,2-2,2.17,1.63a5.73,5.73,0,0,1,.75-.31l.39-2.69h2.89l.39,2.69a5.75,5.75,0,0,1,.77.32l2.18-1.63,2,2-1.63,2.18a5.86,5.86,0,0,1,.32.77l2.69.39v2.89l-2.69.39a5.62,5.62,0,0,1-.32.77l1.63,2.18-2,2-2.18-1.63a5.68,5.68,0,0,1-.77.32Zm-1.59-1.5h.29l.35-2.39.5-.12A4.28,4.28,0,0,0,154,48.4l.43-.27,1.94,1.45.21-.21-1.45-1.94.27-.43a4.23,4.23,0,0,0,.53-1.28l.12-.5,2.39-.34v-.3L156,44.24l-.12-.5a4.27,4.27,0,0,0-.53-1.28L155.1,42l1.45-1.94-.21-.21-1.94,1.45-.43-.27a4.26,4.26,0,0,0-1.28-.53l-.5-.12L151.85,38h-.29l-.35,2.39-.5.12a4.3,4.3,0,0,0-1.27.53l-.44.27-1.93-1.45-.21.21L148.31,42l-.27.43a4.26,4.26,0,0,0-.53,1.28l-.12.5-2.39.34v.29l2.39.35.12.5A4.3,4.3,0,0,0,148,47l.27.43-1.45,1.94.21.21L149,48.12l.43.27a4.27,4.27,0,0,0,1.28.53l.5.12Zm.16-3.69a3,3,0,1,1,0-6v1.5a1.52,1.52,0,1,0,1.52,1.52h1.5A3,3,0,0,1,151.7,47.75Zm-6.35-13.14-1.54-2.68,1.3-.75,1.54,2.68Zm13.14-.13-1.3-.74,1.53-2.69,1.3.74Zm-5.82-1.88h-1.5V29.51h1.5Z"/>
    </g>
    <g class="h">
      <path class="b" d="M85.87,63.76H76.32V101.7A4.68,4.68,0,0,0,81,106.37h5.37a.93.93,0,0,0,.45-.79V64.71A1,1,0,0,0,85.87,63.76Z"/>
    </g>
    <g>
      <rect class="c" x="79.9" y="27.65" width="46.44" height="78.14" rx="3.92" ry="3.92"/>
      <rect class="e" x="79.9" y="39.49" width="46.44" height="54.26"/>
      <g class="i">
        <g class="j">
          <polygon class="k" points="123.32 39.49 116.09 39.49 79.9 75.68 79.9 82.91 123.32 39.49"/>
        </g>
        <g class="j">
          <polygon class="k" points="79.9 54.73 79.9 71.08 111.49 39.49 95.14 39.49 79.9 54.73"/>
        </g>
      </g>
      <path class="b" d="M122.09,106.37H83.49a4.68,4.68,0,0,1-4.67-4.67V31.41a4.68,4.68,0,0,1,4.67-4.67h38.6a4.68,4.68,0,0,1,4.67,4.67V101.7A4.68,4.68,0,0,1,122.09,106.37ZM83.49,28.24a3.18,3.18,0,0,0-3.17,3.17V101.7a3.18,3.18,0,0,0,3.17,3.17h38.6a3.18,3.18,0,0,0,3.17-3.17V31.41a3.18,3.18,0,0,0-3.17-3.17Z"/>
      <rect class="b" x="79.57" y="38.58" width="46.44" height="1.5"/>
      <rect class="b" x="95.34" y="32.93" width="9.89" height="1.5"/>
      <rect class="b" x="107.19" y="32.93" width="3.05" height="1.5"/>
      <rect class="b" x="79.57" y="93.18" width="46.44" height="1.5"/>
      <g>
        <path class="c" d="M94,76.86h-1.5v-5a1.85,1.85,0,0,1,1.26-1.76l5.62-1.91v-2.9h1.5v4l-6.63,2.26a.35.35,0,0,0-.24.34Z"/>
        <path class="c" d="M113.2,76.86h-1.5v-5a.35.35,0,0,0-.24-.34l-6.63-2.26v-4h1.5v2.9l5.62,1.91a1.85,1.85,0,0,1,1.26,1.76Z"/>
        <path class="c" d="M103.8,67h-1.93l-2.43-1.6a2.86,2.86,0,0,1-1.5-2.34l-.45-5.56a5.38,5.38,0,1,1,10.77-.06v.06l-.45,5.57a2.9,2.9,0,0,1-1.56,2.37Zm-1.48-1.5h1l2.14-1.36a1.45,1.45,0,0,0,.81-1.19l.44-5.54a3.88,3.88,0,0,0-7.77,0L99.44,63a1.41,1.41,0,0,0,.76,1.16Z"/>
        <polygon class="c" points="104.28 71.45 101.55 71.45 99.59 69.22 100.72 68.23 102.23 69.95 103.6 69.95 105.11 68.23 106.24 69.22 104.28 71.45"/>
      </g>
      <rect class="c" x="89.36" y="76.11" width="27.52" height="1.5"/>
    </g>
    <g class="i">
      <path class="b" d="M159.47,105.37h.17v-.17l1.4-1.4a.93.93,0,0,0,0-1.32l-1.41-1.41V98.61h.75V68.83h-5.84a1,1,0,0,0-.95.95v35.59h2.78l.88.88a.93.93,0,0,0,.66.28h0a.93.93,0,0,0,.66-.27Z"/>
    </g>
    <g class="h">
      <path class="b" d="M114.38,63.77a1,1,0,0,0-1,1v40.59h11.56a4.65,4.65,0,0,0,1.82-3.67V63.77Z"/>
    </g>
    <g>
      <path class="c" d="M156.89,64.53h-40a.26.26,0,0,0-.26.26v40.59h40.51V64.79A.26.26,0,0,0,156.89,64.53Z"/>
      <path class="e" d="M156.89,64.53h-40c-.14,0-.26,0-.26,0V70h40.51V64.56S157,64.53,156.89,64.53Z"/>
      <rect class="f" x="151.56" y="96.51" width="3.85" height="9.34" rx="0.18" ry="0.18" transform="translate(-26.59 138.16) rotate(-45)"/>
      <path class="b" d="M117.38,105.37h-1.5V64.78a1,1,0,0,1,1-1h40a1,1,0,0,1,1,1V98.6h-1.5V65.27h-39Z"/>
      <rect class="b" x="116.63" y="69.48" width="40.51" height="1.5"/>
      <rect class="c" x="120.62" y="66.42" width="2.18" height="1.5"/>
      <rect class="c" x="124.91" y="66.42" width="2.19" height="1.5"/>
      <rect class="c" x="129.21" y="66.42" width="2.18" height="1.5"/>
      <polygon class="b" points="126.77 85.14 120.94 85.14 120.94 73.32 152.01 73.32 152.01 79.23 150.51 79.23 150.51 74.82 122.44 74.82 122.44 83.64 126.77 83.64 126.77 85.14"/>
      <polygon class="b" points="129.59 96.69 120.94 96.69 120.94 88.06 126.89 88.06 126.89 89.56 122.44 89.56 122.44 95.19 129.59 95.19 129.59 96.69"/>
      <path class="b" d="M155.43,106.53h0a.93.93,0,0,1-.66-.28l-6.34-6.34a.94.94,0,0,1,0-1.32l2.46-2.46a.92.92,0,0,1,.66-.27h0a.92.92,0,0,1,.66.27l6.34,6.34a.93.93,0,0,1,0,1.32l-2.46,2.46A.93.93,0,0,1,155.43,106.53Zm-5.54-7.28,5.54,5.54,1.66-1.66-5.54-5.54Z"/>
      <rect class="b" x="147.88" y="94.82" width="1.5" height="3.04" transform="translate(-24.59 133.32) rotate(-45)"/>
      <path class="b" d="M140.12,99.13A11.74,11.74,0,1,1,151.86,87.4,11.75,11.75,0,0,1,140.12,99.13Zm0-22A10.24,10.24,0,1,0,150.36,87.4,10.25,10.25,0,0,0,140.12,77.16Z"/>
      <polygon class="b" points="139 90.69 135.52 87.2 136.58 86.14 139 88.56 143.67 83.9 144.73 84.96 139 90.69"/>
    </g>
    <g>
      <path class="b" d="M199.84,106.53H15.66a.75.75,0,0,1,0-1.5H199.84a.75.75,0,0,1,0,1.5Z"/>
      <path class="b" d="M205.28,106.53h-2.72a.75.75,0,0,1,0-1.5h2.72a.75.75,0,0,1,0,1.5Z"/>
      <path class="b" d="M13,106.53H8.35a.75.75,0,0,1,0-1.5H13a.75.75,0,0,1,0,1.5Z"/>
    </g>
    <g>
      <circle class="e" cx="91.88" cy="97.55" r="8.08"/>
      <path class="b" d="M91.88,106.38a8.83,8.83,0,1,1,8.83-8.83A8.84,8.84,0,0,1,91.88,106.38Zm0-16.16a7.33,7.33,0,1,0,7.33,7.33A7.34,7.34,0,0,0,91.88,90.21Z"/>
      <g>
        <path class="c" d="M89.79,100.39a.75.75,0,0,1-.53-1.28l4.19-4.19A.75.75,0,1,1,94.51,96l-4.19,4.19A.75.75,0,0,1,89.79,100.39Z"/>
        <path class="c" d="M94,100.39a.75.75,0,0,1-.53-.22L89.26,96a.75.75,0,0,1,1.06-1.06l4.19,4.19a.75.75,0,0,1-.53,1.28Z"/>
      </g>
    </g>
    <g class="h">
      <path class="b" d="M83.05,97.55a8.83,8.83,0,0,0,4.86,7.88,9.68,9.68,0,0,0-1.51-14.79A8.81,8.81,0,0,0,83.05,97.55Z"/>
    </g>
    <g>
      <circle class="c" cx="80.97" cy="98.66" r="6.82"/>
      <path class="b" d="M81,106.24a7.57,7.57,0,1,1,7.57-7.57A7.58,7.58,0,0,1,81,106.24Zm0-13.65A6.07,6.07,0,1,0,87,98.66,6.08,6.08,0,0,0,81,92.59Z"/>
      <g>
        <path class="b" d="M83.47,99.41h-5a.75.75,0,0,1,0-1.5h5a.75.75,0,0,1,0,1.5Z"/>
        <path class="b" d="M81,101.91a.75.75,0,0,1-.75-.75v-5a.75.75,0,1,1,1.5,0v5A.75.75,0,0,1,81,101.91Z"/>
      </g>
    </g>
    <g>
      <path class="e" d="M57,52.48a12.47,12.47,0,0,0,1.54-3.72l4.93-1.13v-4L58.59,43a12.47,12.47,0,0,0-1.54-3.73l2.35-3.64-2.79-2.79L53,35.18a12.47,12.47,0,0,0-3.69-1.53l-.75-4.13h-4l-1.07,4.13a12.48,12.48,0,0,0-3.73,1.53l-3.64-2.32-2.8,2.79,2.36,3.6A12.47,12.47,0,0,0,34.15,43l-4.33.73v4l4.33,1.08a12.48,12.48,0,0,0,1.53,3.73L33.33,56.1l2.79,2.79,3.62-2.36a12.47,12.47,0,0,0,3.72,1.54h0a7.26,7.26,0,0,0,5.59.08l.18-.07A12.48,12.48,0,0,0,53,56.55l3.66,2.37,2.8-2.79Z"/>
      <circle class="c" cx="46.55" cy="45.71" r="8.98" transform="translate(-18.69 46.31) rotate(-45)"/>
      <g class="a">
        <path class="b" d="M52.9,39.36a8.94,8.94,0,0,0-6.1-2.62,9,9,0,0,1-3.5,17.34,9,9,0,0,0,9.6-14.72Z"/>
      </g>
      <path class="f" d="M48.65,61.54a.22.22,0,0,0-.22-.22H44.31a.22.22,0,0,0-.22.22V105.3h4.56Z"/>
      <path class="c" d="M45.9,105.3h2.75V61.54a.22.22,0,0,0-.22-.22H45.9Z"/>
      <g>
        <path class="b" d="M56.91,59.73l-3.78-2.44a13.25,13.25,0,0,1-3.54,1.39.75.75,0,1,1-.34-1.46,11.75,11.75,0,0,0,3.5-1.45l.4-.25,3.55,2.3,1.94-1.93-2.3-3.54.25-.41A11.7,11.7,0,0,0,58,48.43l.11-.45L63,46.87v-2.7l-4.8-.66L58,43a11.69,11.69,0,0,0-1.45-3.5l-.25-.4,2.28-3.53L56.7,33.63l-3.53,2.29-.4-.25a11.74,11.74,0,0,0-3.47-1.44l-.48-.11-.73-4H45.34l-1,4-.44.1a11.69,11.69,0,0,0-3.5,1.44l-.4.25-3.53-2.25-1.94,1.93,2.28,3.49-.25.41A11.71,11.71,0,0,0,35.07,43l-.11.48-4.2.71v2.73L35,48l.1.45a11.75,11.75,0,0,0,1.44,3.5l.25.4-2.27,3.54,1.94,1.94,3.51-2.29.41.25a11.74,11.74,0,0,0,3.5,1.45.75.75,0,0,1-.34,1.46A13.2,13.2,0,0,1,40,57.27l-3.74,2.44-3.65-3.65L35,52.29a13.25,13.25,0,0,1-1.27-3.09l-4.46-1.12V42.91l4.48-.76a13.19,13.19,0,0,1,1.27-3l-2.43-3.72,3.66-3.64L40,34.13a13.18,13.18,0,0,1,3.1-1.27l1.1-4.26h5.16l.78,4.27a13.24,13.24,0,0,1,3,1.25l3.76-2.43,3.65,3.65-2.43,3.76a13.19,13.19,0,0,1,1.26,3l5.08.7v5.2l-5.07,1.16a13.17,13.17,0,0,1-1.27,3.08l2.45,3.77Z"/>
        <path class="b" d="M46.55,55.44a9.73,9.73,0,1,1,6.88-16.61h0a9.73,9.73,0,0,1-6.88,16.61Zm0-18a8.23,8.23,0,1,0,5.82,2.41h0A8.18,8.18,0,0,0,46.55,37.48Z"/>
      </g>
      <path class="b" d="M49.4,105.3H47.9V62.07H44.85V105.3h-1.5V61.54a1,1,0,0,1,1-1h4.12a1,1,0,0,1,1,1Z"/>
      <path class="b" d="M46.53,61.54a.75.75,0,0,1-.75-.75V56.39a.75.75,0,1,1,1.5,0v4.41A.75.75,0,0,1,46.53,61.54Z"/>
      <path class="b" d="M43.86,50.68,40,46.85a.75.75,0,0,1,1.06-1.06l2.77,2.77,6.82-6.82a.75.75,0,1,1,1.06,1.06Z"/>
    </g>
  </g>
</svg>
