<svg xmlns="http://www.w3.org/2000/svg" width="125.11" height="138.56" viewBox="0 0 125.11 138.56">
  <defs>
    <style>
      .a {
        fill: #b8cefd;
      }

      .b {
        fill: #7ba2f6;
      }

      .c {
        fill: #9bb9fa;
      }

      .d {
        fill: #adc6fc;
      }

      .e {
        fill: #719bf5;
      }

      .f {
        fill: #9ab8fa;
      }

      .g {
        fill: #bbd0fe;
      }

      .h {
        fill: #1458eb;
      }
    </style>
  </defs>
  <title>коробка</title>
  <g>
    <path class="a" d="M113.91,155.24c-5.51.43-11,.88-16.53,1.23-9.59.62-24.46,2-29.41,11.86-5.88,11.7,5.7,18.55,15.53,20,22.06,3.14,45.3,5.89,67.41,2.18,10.65-1.78,31.17-4.75,24.34-20.23-8-18.11-33.92-17-50.25-15.83C121.3,154.66,117.61,155,113.91,155.24Z" transform="translate(-60.54 -53.69)"/>
    <g>
      <path class="b" d="M78.93,128s-1.15,51.68,0,52.83,89.86,2,91,0S168.79,126,168.79,126Z" transform="translate(-60.54 -53.69)"/>
      <polygon class="c" points="27.29 37.25 16.38 50.75 18.97 58.8 65.77 69.58 106.82 58.8 109.4 50.75 101.65 37.25 62.89 28.69 27.29 37.25"/>
      <path class="d" d="M87.83,90.94h74.36s-4-18.95-5.74-20.1-62.87-1.72-63.74,0S87.83,90.94,87.83,90.94Z" transform="translate(-60.54 -53.69)"/>
      <polygon class="b" points="18.97 58.8 27.29 60.72 27.29 37.25 16.38 50.75 18.97 58.8"/>
      <polygon class="b" points="106.82 58.8 109.4 50.75 101.65 37.25 100.81 60.38 106.82 58.8"/>
      <path class="d" d="M79.51,112.49S70,131.42,70.32,132.86s103.36,1.72,105.08,0-8-20.37-8-20.37Z" transform="translate(-60.54 -53.69)"/>
      <path class="d" d="M79.51,112.49l8.33-21.55s-15.31,7.75-15.41,8.33S60,120.51,60.56,121.95,79.51,112.49,79.51,112.49Z" transform="translate(-60.54 -53.69)"/>
      <path class="d" d="M167.36,112.49s16.36,10,18.09,9.59-8-21.09-9-22.24-14.21-8.9-14.21-8.9Z" transform="translate(-60.54 -53.69)"/>
      <path class="e" d="M88.22,164.17a7.79,7.79,0,0,0-4,1.73,1.2,1.2,0,0,0,1.16,2A9.07,9.07,0,0,0,89,166.13,1.08,1.08,0,0,0,88.22,164.17Z" transform="translate(-60.54 -53.69)"/>
      <path class="e" d="M99.07,163.15c-2.91,1.65-5.73,3.41-8.53,5.24-2.25,1.46-5.08,2.6-6.93,4.56-.74.78.22,2.12,1.17,1.51,5.11-3.24,10.41-5.95,15.36-9.49A1.05,1.05,0,0,0,99.07,163.15Z" transform="translate(-60.54 -53.69)"/>
      <path class="e" d="M104.58,166.88c-2.89.42-5.39,2.52-7.77,4.08-2.23,1.46-4.51,2.64-6.36,4.61-.77.82.28,2.35,1.25,1.62,4.33-3.26,10-4.54,14.28-7.91C107.25,168.28,105.8,166.7,104.58,166.88Z" transform="translate(-60.54 -53.69)"/>
      <path class="e" d="M106,172c-.82.53-1.75.85-2.56,1.37s-1.7,1-2.56,1.44c-1.51.81-.18,2.91,1.31,2.25,1-.44,2-.88,3-1.39a7.87,7.87,0,0,0,2.23-2.28C108,172.55,106.8,171.47,106,172Z" transform="translate(-60.54 -53.69)"/>
      <path class="f" d="M94.78,103.52a6.56,6.56,0,0,0-3.69,2.24c-.59.85.54,1.81,1.35,1.35a22.73,22.73,0,0,0,3.17-2.16C96.28,104.4,95.56,103.26,94.78,103.52Z" transform="translate(-60.54 -53.69)"/>
      <path class="f" d="M102.79,103.79a19.45,19.45,0,0,0-7.73,4c-1,.88.43,2.21,1.43,1.43,2.11-1.67,4.75-2.38,7-3.71A1,1,0,0,0,102.79,103.79Z" transform="translate(-60.54 -53.69)"/>
      <path class="f" d="M104.4,107.14l-2.37.51c-1.28.27-.57,2.32.73,1.72l2.16-1C105.64,108,105.11,107,104.4,107.14Z" transform="translate(-60.54 -53.69)"/>
      <path class="f" d="M82.91,124.55a24.78,24.78,0,0,0-4.58,1.19c-.81.3-.77,1.75.22,1.63a16.6,16.6,0,0,0,5-1.22C84.55,125.7,83.81,124.4,82.91,124.55Z" transform="translate(-60.54 -53.69)"/>
      <path class="f" d="M91.72,124.19a54.48,54.48,0,0,0-9.8,3.88c-1,.52-.13,2,.91,1.55,3.12-1.46,6.4-2.48,9.55-3.87C93.28,125.35,92.63,123.94,91.72,124.19Z" transform="translate(-60.54 -53.69)"/>
      <path class="g" d="M140.46,73.08c-3.94-.53-8.15-1.18-12,0-1.05.33-.91,2.05.27,2,3.85-.23,7.64.2,11.48,0C141.31,75.11,141.68,73.25,140.46,73.08Z" transform="translate(-60.54 -53.69)"/>
      <path class="g" d="M147.67,73.32l-1.11-.15a1,1,0,1,0,0,1.86l1.11-.15A.81.81,0,0,0,147.67,73.32Z" transform="translate(-60.54 -53.69)"/>
    </g>
    <path class="h" d="M122.56,79a30.4,30.4,0,0,1,4.52-5,26.32,26.32,0,0,0,3.2-3.33,5,5,0,0,0,1-3.07,4.53,4.53,0,0,0-1.95-3.86,8.62,8.62,0,0,0-5.18-1.42,11.51,11.51,0,0,0-5.51,1.29,11.74,11.74,0,0,0-4.06,3.6l-8-4.69A18.5,18.5,0,0,1,114.11,56a25.19,25.19,0,0,1,11.19-2.31q7.59,0,12.18,3.24a10.38,10.38,0,0,1,4.59,9,11.8,11.8,0,0,1-.89,4.75A12.57,12.57,0,0,1,139,74.12q-1.29,1.42-3.33,3.27a27.7,27.7,0,0,0-3.57,3.66,5.79,5.79,0,0,0-1.12,3.6H121A9.76,9.76,0,0,1,122.56,79Zm-1.06,20.5a5.68,5.68,0,0,1-1.82-4.26A5.53,5.53,0,0,1,121.47,91a7,7,0,0,1,9.11,0,5.53,5.53,0,0,1,1.78,4.19,5.69,5.69,0,0,1-1.82,4.26,6.72,6.72,0,0,1-9,0Z" transform="translate(-60.54 -53.69)"/>
    <path class="h" d="M150.29,89.33A30.4,30.4,0,0,1,157,89a26.32,26.32,0,0,0,4.62-.09,5,5,0,0,0,2.89-1.45,4.53,4.53,0,0,0,1.35-4.11,8.62,8.62,0,0,0-2.66-4.67,11.51,11.51,0,0,0-4.81-3,11.74,11.74,0,0,0-5.42-.33l-2.33-9a18.5,18.5,0,0,1,9.92.68,25.19,25.19,0,0,1,9.55,6.28q5.37,5.37,6.33,10.9a10.38,10.38,0,0,1-3.1,9.59,11.8,11.8,0,0,1-4,2.73,12.57,12.57,0,0,1-4,.91q-1.91.09-4.67,0a27.7,27.7,0,0,0-5.11.07,5.79,5.79,0,0,0-3.34,1.75l-7-7A9.76,9.76,0,0,1,150.29,89.33ZM135,103.08a5.68,5.68,0,0,1,1.73-4.3,5.53,5.53,0,0,1,4.23-1.7,7,7,0,0,1,6.44,6.44,5.53,5.53,0,0,1-1.7,4.23,5.69,5.69,0,0,1-4.29,1.73,6.72,6.72,0,0,1-6.4-6.4Z" transform="translate(-60.54 -53.69)"/>
    <path class="h" d="M94.38,94.23a30.4,30.4,0,0,1-.3-6.7A26.32,26.32,0,0,0,94,82.91,5,5,0,0,0,92.53,80a4.53,4.53,0,0,0-4.11-1.35,8.62,8.62,0,0,0-4.67,2.66,11.51,11.51,0,0,0-3,4.81,11.74,11.74,0,0,0-.33,5.42l-9,2.33A18.5,18.5,0,0,1,72.16,84a25.19,25.19,0,0,1,6.28-9.55Q83.8,69,89.34,68.09a10.38,10.38,0,0,1,9.59,3.1,11.8,11.8,0,0,1,2.73,4,12.57,12.57,0,0,1,.91,4q.09,1.91,0,4.67a27.7,27.7,0,0,0,.07,5.11,5.79,5.79,0,0,0,1.75,3.34l-7,7A9.76,9.76,0,0,1,94.38,94.23Zm13.75,15.24a5.68,5.68,0,0,1-4.3-1.73,5.53,5.53,0,0,1-1.7-4.23,7,7,0,0,1,6.44-6.44,5.53,5.53,0,0,1,4.23,1.7,5.69,5.69,0,0,1,1.73,4.29,6.72,6.72,0,0,1-6.4,6.4Z" transform="translate(-60.54 -53.69)"/>
  </g>
</svg>
